<?xml version="1.0" encoding="UTF-8" standalone="no"?>
<!DOCTYPE svg PUBLIC "-//W3C//DTD SVG 1.1//EN" "http://www.w3.org/Graphics/SVG/1.1/DTD/svg11.dtd">
<svg width="100%" height="100%" viewBox="0 0 320 320" version="1.1" xmlns="http://www.w3.org/2000/svg" xmlns:xlink="http://www.w3.org/1999/xlink" xml:space="preserve" xmlns:serif="http://www.serif.com/" style="fill-rule:evenodd;clip-rule:evenodd;stroke-linecap:round;stroke-linejoin:round;stroke-miterlimit:1.5;">
    <g transform="matrix(0.23617,0,0,0.23617,-73.5826,22.4351)">
        <g transform="matrix(1,0,0,1,30,-60)">
            <g transform="matrix(0.882073,0,0,0.882073,870.526,-41.5676)">
                <circle cx="526.596" cy="993.99" r="119.195" style="fill:rgb(75,75,75);stroke:black;stroke-width:38.4px;"/>
            </g>
            <g transform="matrix(0.574118,0,0,0.574118,1032.69,264.536)">
                <circle cx="526.596" cy="993.99" r="119.195" style="fill:rgb(235,235,235);stroke:black;stroke-width:59px;"/>
            </g>
        </g>
        <g transform="matrix(1,0,0,1,-709.644,-60)">
            <g transform="matrix(0.882073,0,0,0.882073,870.526,-41.5676)">
                <circle cx="526.596" cy="993.99" r="119.195" style="fill:rgb(75,75,75);stroke:black;stroke-width:38.4px;"/>
            </g>
            <g transform="matrix(0.574118,0,0,0.574118,1032.69,264.536)">
                <circle cx="526.596" cy="993.99" r="119.195" style="fill:rgb(235,235,235);stroke:black;stroke-width:59px;"/>
            </g>
        </g>
        <g transform="matrix(0.899046,0,0,1,163.163,0)">
            <g transform="matrix(1.77532,0,0,1,-145.24,0)">
                <path d="M984.966,523.854C995.786,594.8 991.908,668.032 989.407,744.801C988.702,769.802 977.079,789.431 962.979,789.431C945.383,789.438 922.93,789.438 910.574,789.438C905.051,789.438 900.11,783.34 898.185,774.149C895.649,762.038 892.009,744.651 888.782,729.242C884.452,708.562 873.335,694.843 860.907,694.843L810.557,694.843C798.523,694.843 787.744,708.063 783.485,728.045C775.795,764.131 764.589,816.712 764.589,816.712L460.396,816.712C460.396,816.712 455.142,798.495 450.298,781.701C445.398,764.71 435.551,754.021 424.798,754.021C398.094,754.021 347.505,754.021 320.892,754.021C310.212,754.021 300.41,764.517 295.427,781.287C290.403,798.194 284.901,816.712 284.901,816.712L230.467,816.712C220.705,816.712 212.586,803.378 211.827,786.099C208.345,701.776 207.796,613.767 208.8,523.854L984.966,523.854Z" style="fill:rgb(0,222,255);"/>
            </g>
            <path d="M225.446,523.854C225.866,499.947 226.519,475.921 227.318,451.792C229.939,370.24 294.167,304.067 375.604,299.012C754.352,275.811 1106.7,281.747 1439.72,309.041C1453.13,310.34 1490.77,325.016 1518.43,353.331L1488.32,353.331C1554.6,409.106 1587.76,465.71 1603.39,523.854C1617.73,576.143 1617.25,667.666 1611.76,741.108C1616.68,633.019 1576.02,519.026 1510.78,523.854L225.446,523.854Z" style="fill:white;"/>
            <g transform="matrix(1.77532,0,0,1,-145.24,0)">
                <path d="M208.396,582.135C208.596,637.956 209.625,692.764 211.827,746.099C212.586,763.378 220.705,776.712 230.467,776.712L284.901,776.712C284.901,776.712 290.403,758.194 295.427,741.287C300.41,724.517 310.212,714.021 320.892,714.021L424.798,714.021C435.551,714.021 445.398,724.71 450.298,741.701C455.142,758.495 460.396,776.712 460.396,776.712L764.589,776.712C764.589,776.712 775.795,724.131 783.485,688.045C787.744,668.063 798.523,654.843 810.557,654.843L860.907,654.843C873.335,654.843 884.452,668.562 888.782,689.242C892.009,704.651 895.649,722.038 898.185,734.149C900.11,743.34 905.051,749.438 910.574,749.438C922.93,749.438 945.383,749.438 962.979,749.431C977.079,749.431 988.702,729.802 989.407,704.801C990.394,674.485 991.597,644.721 992.011,615.429C992.745,657.537 990.848,700.582 989.407,744.801C988.702,769.802 977.079,789.431 962.979,789.431C945.383,789.438 922.93,789.438 910.574,789.438C905.051,789.438 900.11,783.34 898.185,774.149C895.649,762.038 892.009,744.651 888.782,729.242C884.452,708.562 873.335,694.843 860.907,694.843L810.557,694.843C798.523,694.843 787.744,708.063 783.485,728.045C775.795,764.131 764.589,816.712 764.589,816.712L460.396,816.712C460.396,816.712 455.142,798.495 450.298,781.701C445.398,764.71 435.551,754.021 424.798,754.021C398.094,754.021 347.505,754.021 320.892,754.021C310.212,754.021 300.41,764.517 295.427,781.287C290.403,798.194 284.901,816.712 284.901,816.712L230.467,816.712C220.705,816.712 212.586,803.378 211.827,786.099C209.101,720.082 208.173,651.807 208.396,582.135Z" style="fill:rgb(0,161,255);"/>
            </g>
            <g>
                <g>
                    <g transform="matrix(1,0,0,1,0,4)">
                        <path d="M1168.45,423.931C1166.83,388.257 1134.19,360.086 1094.48,360.086L850.145,360.086C820.148,360.086 795.83,381.949 795.83,408.919C795.83,412.254 795.83,415.653 795.83,419.077C795.83,459.474 832.256,492.223 877.189,492.223C944.452,492.223 1038.91,492.223 1102.53,492.223C1120.57,492.223 1137.84,485.609 1150.33,473.907C1162.83,462.205 1169.47,446.429 1168.74,430.222C1168.64,428.127 1168.55,426.028 1168.45,423.931Z" style="fill:rgb(92,189,204);stroke:black;stroke-width:35.62px;"/>
                    </g>
                    <g transform="matrix(1.11229,0,0,1,334.727,0)">
                        <path d="M751.758,488.649L746.268,370.095L735.192,364.419L702.561,364.419L662.561,496.556L735.192,496.556L751.758,488.649Z" style="fill:white;"/>
                    </g>
                    <g transform="matrix(1.11229,0,0,1,232.156,0)">
                        <path d="M775.192,364.419L762.561,364.419L712.561,496.556L735.192,496.556L775.192,364.419Z" style="fill:white;"/>
                    </g>
                    <g transform="matrix(1,0,0,1,0,4)">
                        <path d="M1168.45,423.931C1166.83,388.257 1134.19,360.086 1094.48,360.086L850.145,360.086C820.148,360.086 795.83,381.949 795.83,408.919C795.83,412.254 795.83,415.653 795.83,419.077C795.83,459.474 832.256,492.223 877.189,492.223C944.452,492.223 1038.91,492.223 1102.53,492.223C1120.57,492.223 1137.84,485.609 1150.33,473.907C1162.83,462.205 1169.47,446.429 1168.74,430.222C1168.64,428.127 1168.55,426.028 1168.45,423.931Z" style="fill:none;stroke:black;stroke-width:35.62px;"/>
                    </g>
                </g>
                <g>
                    <g transform="matrix(1,0,0,1,434.31,2.94756)">
                        <path d="M1056.72,402.947C1045.78,377.141 1018.25,360.086 987.535,360.086C947.761,360.086 892.591,360.086 851.644,360.086C836.982,360.086 822.943,365.415 812.718,374.862C802.492,384.309 796.949,397.071 797.348,410.247C797.456,413.803 797.565,417.425 797.676,421.067C798.875,460.675 834.934,492.223 879.005,492.223L998.398,492.223C1020.19,492.223 1040.59,482.588 1052.96,466.454C1065.33,450.32 1068.08,429.751 1060.32,411.441C1059.1,408.563 1057.89,405.724 1056.72,402.947Z" style="fill:rgb(92,189,204);stroke:black;stroke-width:35.62px;"/>
                    </g>
                    <g transform="matrix(1.11229,0,0,1,-181.484,0)">
                        <path d="M1318.08,363.034L1272.71,488.91L1269.43,370.869L1278.85,363.034L1318.08,363.034Z" style="fill:white;"/>
                    </g>
                    <g transform="matrix(1,0,0,1,434.31,2.94756)">
                        <path d="M1056.72,402.947C1045.78,377.141 1018.25,360.086 987.535,360.086C947.761,360.086 892.591,360.086 851.644,360.086C836.982,360.086 822.943,365.415 812.718,374.862C802.492,384.309 796.949,397.071 797.348,410.247C797.456,413.803 797.565,417.425 797.676,421.067C798.875,460.675 834.934,492.223 879.005,492.223L998.398,492.223C1020.19,492.223 1040.59,482.588 1052.96,466.454C1065.33,450.32 1068.08,429.751 1060.32,411.441C1059.1,408.563 1057.89,405.724 1056.72,402.947Z" style="fill:none;stroke:black;stroke-width:35.62px;"/>
                    </g>
                </g>
                <g transform="matrix(1,0,0,1,5.00615,2.6209)">
                    <path d="M1509.19,375.687C1526.06,420.14 1543.7,509.165 1586.35,485.101C1578.78,461.611 1534.59,391.849 1509.19,375.687Z" style="fill:rgb(92,189,204);stroke:black;stroke-width:35.62px;"/>
                </g>
                <g>
                    <g transform="matrix(1,0,0,1,-419.305,4.33249)">
                        <path d="M1169.83,416.403C1169.12,385.116 1140.71,360.086 1105.9,360.086C1054.45,360.086 980.048,360.086 917.025,360.086C847.598,360.086 788.849,406.204 779.488,468.051C779.488,468.055 779.487,468.059 779.487,468.063C778.565,474.154 780.616,480.306 785.113,484.936C789.61,489.566 796.113,492.223 802.951,492.223C863.63,492.223 1011.98,492.223 1100.88,492.223C1119.49,492.223 1137.32,485.488 1150.34,473.537C1163.36,461.586 1170.49,445.425 1170.11,428.697C1170.02,424.591 1169.92,420.471 1169.83,416.403Z" style="fill:rgb(92,189,204);stroke:black;stroke-width:35.62px;"/>
                    </g>
                    <g transform="matrix(1.11229,0,0,1,-181.484,0)">
                        <path d="M765.192,364.419L692.561,364.419L662.561,496.556L735.192,496.556L765.192,364.419Z" style="fill:white;"/>
                    </g>
                    <g transform="matrix(1.11229,0,0,1,-269.678,0)">
                        <path d="M765.192,364.419L752.561,364.419L722.561,496.556L735.192,496.556L765.192,364.419Z" style="fill:white;"/>
                    </g>
                    <g transform="matrix(1,0,0,1,-419.305,4.33249)">
                        <path d="M1169.83,416.403C1169.12,385.116 1140.71,360.086 1105.9,360.086C1054.45,360.086 980.048,360.086 917.025,360.086C847.598,360.086 788.849,406.204 779.488,468.051C779.488,468.055 779.487,468.059 779.487,468.063C778.565,474.154 780.616,480.306 785.113,484.936C789.61,489.566 796.113,492.223 802.951,492.223C863.63,492.223 1011.98,492.223 1100.88,492.223C1119.49,492.223 1137.32,485.488 1150.34,473.537C1163.36,461.586 1170.49,445.425 1170.11,428.697C1170.02,424.591 1169.92,420.471 1169.83,416.403Z" style="fill:none;stroke:black;stroke-width:35.62px;"/>
                    </g>
                </g>
            </g>
            <g transform="matrix(1.11229,0,0,1,-181.484,0)">
                <path d="M365.849,523.854C366.226,499.947 366.814,475.921 367.532,451.792C369.889,370.24 427.632,304.067 500.848,299.012C841.36,275.811 1158.14,281.747 1457.54,309.041C1469.6,310.34 1503.43,325.016 1528.3,353.331L1501.23,353.331C1560.82,409.106 1590.63,465.71 1604.68,523.854C1621.95,594.8 1615.77,668.032 1611.77,744.801C1610.65,769.802 1592.1,789.431 1569.59,789.431C1541.51,789.438 1505.67,789.438 1485.95,789.438C1477.13,789.438 1469.25,783.34 1466.17,774.149C1462.13,762.038 1456.32,744.651 1451.17,729.242C1444.25,708.562 1426.51,694.843 1406.67,694.843L1326.31,694.843C1307.1,694.843 1289.9,708.063 1283.1,728.045C1270.83,764.131 1252.94,816.712 1252.94,816.712L767.421,816.712C767.421,816.712 759.035,798.495 751.304,781.701C743.482,764.71 727.765,754.021 710.604,754.021C667.982,754.021 587.236,754.021 544.759,754.021C527.713,754.021 512.067,764.517 504.114,781.287C496.096,798.194 487.314,816.712 487.314,816.712L400.433,816.712C384.851,816.712 371.892,803.378 370.681,786.099C365.124,701.776 364.247,613.767 365.849,523.854Z" style="fill:none;stroke:black;stroke-width:33.87px;"/>
            </g>
        </g>
        <g>
            <g transform="matrix(1,0,0,0.758989,0,183.325)">
                <path d="M333.197,791.557L333.197,820.089C333.197,833.085 341.205,843.636 351.069,843.636L449.974,843.636C459.838,843.636 467.845,833.085 467.845,820.089L467.845,815.104L351.069,815.104C341.205,815.104 333.197,804.553 333.197,791.557Z" style="fill:white;"/>
            </g>
            <g transform="matrix(1.18666,0,0,0.758989,-62.1957,161.67)">
                <path d="M333.197,801.528L333.197,820.089C333.197,833.085 339.946,843.636 348.258,843.636L446.665,843.636L446.665,801.528C446.665,788.532 439.917,777.981 431.605,777.981L348.258,777.981C339.946,777.981 333.197,788.532 333.197,801.528Z" style="fill:rgb(205,205,205);"/>
            </g>
            <g transform="matrix(1,0,0,0.758989,0,183.325)">
                <path d="M467.845,772.996C467.845,760.001 459.838,749.45 449.974,749.45L351.069,749.45C341.205,749.45 333.197,760.001 333.197,772.996L333.197,820.089C333.197,833.085 341.205,843.636 351.069,843.636L449.974,843.636C459.838,843.636 467.845,833.085 467.845,820.089L467.845,772.996Z" style="fill:none;stroke:black;stroke-width:38.16px;"/>
            </g>
        </g>
        <g transform="matrix(-1.36862,0,0,0.916068,2100.91,63.1298)">
            <g transform="matrix(1,0,0,0.758989,0,183.325)">
                <path d="M333.197,791.557L333.197,820.089C333.197,833.085 341.205,843.636 351.069,843.636L449.974,843.636C459.838,843.636 467.845,833.085 467.845,820.089L467.845,815.104L351.069,815.104C341.205,815.104 333.197,804.553 333.197,791.557Z" style="fill:white;"/>
            </g>
            <g transform="matrix(1.18666,0,0,0.758989,-62.1957,161.67)">
                <path d="M333.197,801.528L333.197,820.089C333.197,833.085 339.946,843.636 348.258,843.636L446.665,843.636L446.665,801.528C446.665,788.532 439.917,777.981 431.605,777.981L348.258,777.981C339.946,777.981 333.197,788.532 333.197,801.528Z" style="fill:rgb(205,205,205);"/>
            </g>
            <g transform="matrix(1,0,0,0.758989,0,183.325)">
                <path d="M467.845,772.996C467.845,760.001 462.485,749.45 455.883,749.45L345.159,749.45C338.557,749.45 333.197,760.001 333.197,772.996L333.197,820.089C333.197,833.085 338.557,843.636 345.159,843.636L455.883,843.636C462.485,843.636 467.845,833.085 467.845,820.089L467.845,772.996Z" style="fill:none;stroke:black;stroke-width:31.21px;"/>
            </g>
        </g>
    </g>
    <g transform="matrix(0.334596,0,0,0.272426,-221.097,15.4037)">
        <ellipse cx="1560.14" cy="618.607" rx="9.391" ry="30.922" style="fill:rgb(45,43,39);"/>
    </g>
    <g transform="matrix(0.188407,0,0,0.1534,2.19237,73.4149)">
        <ellipse cx="1560.14" cy="618.607" rx="9.391" ry="30.922" style="fill:rgb(45,43,39);"/>
    </g>
</svg>
