{
    "asset" : {
        "generator" : "Khronos glTF Blender I/O v1.7.1",
        "version" : "2.0"
    },
    "scene" : 0,
    "scenes" : [
        {
            "name" : "Scene",
            "nodes" : [
                0,
                1,
                2,
                3,
                4,
                5
            ]
        }
    ],
    "nodes" : [
        {
            "mesh" : 0,
            "name" : "soleil",
            "rotation" : [
                -0.0013749300269410014,
                -0.7071054577827454,
                0.0013749300269410014,
                0.7071054577827454
            ],
            "scale" : [
                5.4970831871032715,
                15.790450096130371,
                5.496179103851318
            ],
            "translation" : [
                0.13520097732543945,
                -11.630367279052734,
                0.1728113293647766
            ]
        },
        {
            "mesh" : 1,
            "name" : "Roue ARD",
            "rotation" : [
                0,
                0,
                -0.7071067690849304,
                0.7071068286895752
            ],
            "scale" : [
                0.9710169434547424,
                0.4754617214202881,
                0.9710169434547424
            ],
            "translation" : [
                -2.225334405899048,
                5.091697692871094,
                -4.730273246765137
            ]
        },
        {
            "mesh" : 2,
            "name" : "Roue ARG",
            "rotation" : [
                -0.7071067690849304,
                0.7071068286895752,
                0,
                -3.0908619663705394e-08
            ],
            "scale" : [
                0.9710169434547424,
                0.4754617214202881,
                0.9710169434547424
            ],
            "translation" : [
                2.256655216217041,
                5.091697692871094,
                -4.730273246765137
            ]
        },
        {
            "mesh" : 3,
            "name" : "Roue AVG",
            "rotation" : [
                -0.7071067690849304,
                0.7071068286895752,
                0,
                -3.0908619663705394e-08
            ],
            "scale" : [
                0.9710169434547424,
                0.4754617214202881,
                0.9710169434547424
            ],
            "translation" : [
                2.256655216217041,
                5.091697692871094,
                4.805929183959961
            ]
        },
        {
            "mesh" : 4,
            "name" : "Roue AVD",
            "rotation" : [
                0,
                0,
                -0.7071067690849304,
                0.7071068286895752
            ],
            "scale" : [
                0.9710169434547424,
                0.4754617214202881,
                0.9710169434547424
            ],
            "translation" : [
                -2.225334405899048,
                5.091697692871094,
                4.805929183959961
            ]
        },
        {
            "mesh" : 5,
            "name" : "Brioche",
            "scale" : [
                2.766622304916382,
                3.217003107070923,
                7.238256454467773
            ],
            "translation" : [
                -0.006796266883611679,
                8.166016578674316,
                0.20094263553619385
            ]
        }
    ],
    "materials" : [
        {
            "doubleSided" : true,
            "name" : "Material.014",
            "pbrMetallicRoughness" : {
                "baseColorFactor" : [
                    0.8387994170188904,
                    0.12213870137929916,
                    0.0497065931558609,
                    1
                ],
                "metallicFactor" : 0.8048780560493469
            }
        },
        {
            "doubleSided" : true,
            "name" : "Material.002",
            "pbrMetallicRoughness" : {
                "baseColorTexture" : {
                    "index" : 0
                },
                "metallicFactor" : 0,
                "roughnessFactor" : 0.5
            }
        },
        {
            "doubleSided" : true,
            "name" : "Material.003",
            "pbrMetallicRoughness" : {
                "baseColorTexture" : {
                    "index" : 1
                },
                "metallicFactor" : 0,
                "roughnessFactor" : 0.5
            }
        },
        {
            "doubleSided" : true,
            "name" : "Material.006",
            "pbrMetallicRoughness" : {
                "baseColorTexture" : {
                    "index" : 2
                },
                "metallicFactor" : 0,
                "roughnessFactor" : 0.5
            }
        },
        {
            "doubleSided" : true,
            "name" : "Material.007",
            "pbrMetallicRoughness" : {
                "baseColorTexture" : {
                    "index" : 3
                },
                "metallicFactor" : 0,
                "roughnessFactor" : 0.5
            }
        },
        {
            "doubleSided" : true,
            "name" : "Material.008",
            "pbrMetallicRoughness" : {
                "baseColorTexture" : {
                    "index" : 4
                },
                "metallicFactor" : 0,
                "roughnessFactor" : 0.5
            }
        }
    ],
    "meshes" : [
        {
            "name" : "Cylinder.001",
            "primitives" : [
                {
                    "attributes" : {
                        "POSITION" : 0,
                        "NORMAL" : 1,
                        "TEXCOORD_0" : 2
                    },
                    "indices" : 3,
                    "material" : 0
                }
            ]
        },
        {
            "name" : "Cylinder",
            "primitives" : [
                {
                    "attributes" : {
                        "POSITION" : 4,
                        "NORMAL" : 5,
                        "TEXCOORD_0" : 6
                    },
                    "indices" : 7,
                    "material" : 1
                }
            ]
        },
        {
            "name" : "Cylinder.002",
            "primitives" : [
                {
                    "attributes" : {
                        "POSITION" : 8,
                        "NORMAL" : 9,
                        "TEXCOORD_0" : 10
                    },
                    "indices" : 7,
                    "material" : 2
                }
            ]
        },
        {
            "name" : "Cylinder.003",
            "primitives" : [
                {
                    "attributes" : {
                        "POSITION" : 11,
                        "NORMAL" : 12,
                        "TEXCOORD_0" : 13
                    },
                    "indices" : 7,
                    "material" : 3
                }
            ]
        },
        {
            "name" : "Cylinder.004",
            "primitives" : [
                {
                    "attributes" : {
                        "POSITION" : 14,
                        "NORMAL" : 15,
                        "TEXCOORD_0" : 16
                    },
                    "indices" : 7,
                    "material" : 4
                }
            ]
        },
        {
            "name" : "Cube.001",
            "primitives" : [
                {
                    "attributes" : {
                        "POSITION" : 17,
                        "NORMAL" : 18,
                        "TEXCOORD_0" : 19
                    },
                    "indices" : 20,
                    "material" : 5
                }
            ]
        }
    ],
    "textures" : [
        {
            "sampler" : 0,
            "source" : 0
        },
        {
            "sampler" : 0,
            "source" : 0
        },
        {
            "sampler" : 0,
            "source" : 0
        },
        {
            "sampler" : 0,
            "source" : 0
        },
        {
            "sampler" : 0,
            "source" : 1
        }
    ],
    "images" : [
        {
            "bufferView" : 8,
            "mimeType" : "image/png",
            "name" : "Material"
        },
        {
            "bufferView" : 22,
            "mimeType" : "image/png",
            "name" : "V2"
        }
    ],
    "accessors" : [
        {
            "bufferView" : 0,
            "componentType" : 5126,
            "count" : 345,
            "max" : [
                1.5384635925292969,
                1,
                1.5384643077850342
            ],
            "min" : [
                -1.538464903831482,
                -1,
                -1.538464069366455
            ],
            "type" : "VEC3"
        },
        {
            "bufferView" : 1,
            "componentType" : 5126,
            "count" : 345,
            "type" : "VEC3"
        },
        {
            "bufferView" : 2,
            "componentType" : 5126,
            "count" : 345,
            "type" : "VEC2"
        },
        {
            "bufferView" : 3,
            "componentType" : 5123,
            "count" : 372,
            "type" : "SCALAR"
        },
        {
            "bufferView" : 4,
            "componentType" : 5126,
            "count" : 576,
            "max" : [
                1,
                1,
                1
            ],
            "min" : [
                -1,
                -1,
                -1
            ],
            "type" : "VEC3"
        },
        {
            "bufferView" : 5,
            "componentType" : 5126,
            "count" : 576,
            "type" : "VEC3"
        },
        {
            "bufferView" : 6,
            "componentType" : 5126,
            "count" : 576,
            "type" : "VEC2"
        },
        {
            "bufferView" : 7,
            "componentType" : 5123,
            "count" : 756,
            "type" : "SCALAR"
        },
        {
            "bufferView" : 9,
            "componentType" : 5126,
            "count" : 576,
            "max" : [
                1,
                1,
                1
            ],
            "min" : [
                -1,
                -1,
                -1
            ],
            "type" : "VEC3"
        },
        {
            "bufferView" : 10,
            "componentType" : 5126,
            "count" : 576,
            "type" : "VEC3"
        },
        {
            "bufferView" : 11,
            "componentType" : 5126,
            "count" : 576,
            "type" : "VEC2"
        },
        {
            "bufferView" : 12,
            "componentType" : 5126,
            "count" : 576,
            "max" : [
                1,
                1,
                1
            ],
            "min" : [
                -1,
                -1,
                -1
            ],
            "type" : "VEC3"
        },
        {
            "bufferView" : 13,
            "componentType" : 5126,
            "count" : 576,
            "type" : "VEC3"
        },
        {
            "bufferView" : 14,
            "componentType" : 5126,
            "count" : 576,
            "type" : "VEC2"
        },
        {
            "bufferView" : 15,
            "componentType" : 5126,
            "count" : 576,
            "max" : [
                1,
                1,
                1
            ],
            "min" : [
                -1,
                -1,
                -1
            ],
            "type" : "VEC3"
        },
        {
            "bufferView" : 16,
            "componentType" : 5126,
            "count" : 576,
            "type" : "VEC3"
        },
        {
            "bufferView" : 17,
            "componentType" : 5126,
            "count" : 576,
            "type" : "VEC2"
        },
        {
            "bufferView" : 18,
            "componentType" : 5126,
            "count" : 1936,
            "max" : [
                1.0970098972320557,
                0.8243877291679382,
                1.1734745502471924
            ],
            "min" : [
                -1.0970098972320557,
                -1,
                -1.0354641675949097
            ],
            "type" : "VEC3"
        },
        {
            "bufferView" : 19,
            "componentType" : 5126,
            "count" : 1936,
            "type" : "VEC3"
        },
        {
            "bufferView" : 20,
            "componentType" : 5126,
            "count" : 1936,
            "type" : "VEC2"
        },
        {
            "bufferView" : 21,
            "componentType" : 5123,
            "count" : 2610,
            "type" : "SCALAR"
        }
    ],
    "bufferViews" : [
        {
            "buffer" : 0,
            "byteLength" : 4140,
            "byteOffset" : 0
        },
        {
            "buffer" : 0,
            "byteLength" : 4140,
            "byteOffset" : 4140
        },
        {
            "buffer" : 0,
            "byteLength" : 2760,
            "byteOffset" : 8280
        },
        {
            "buffer" : 0,
            "byteLength" : 744,
            "byteOffset" : 11040
        },
        {
            "buffer" : 0,
            "byteLength" : 6912,
            "byteOffset" : 11784
        },
        {
            "buffer" : 0,
            "byteLength" : 6912,
            "byteOffset" : 18696
        },
        {
            "buffer" : 0,
            "byteLength" : 4608,
            "byteOffset" : 25608
        },
        {
            "buffer" : 0,
            "byteLength" : 1512,
            "byteOffset" : 30216
        },
        {
            "buffer" : 0,
            "byteLength" : 64342,
            "byteOffset" : 31728
        },
        {
            "buffer" : 0,
            "byteLength" : 6912,
            "byteOffset" : 96072
        },
        {
            "buffer" : 0,
            "byteLength" : 6912,
            "byteOffset" : 102984
        },
        {
            "buffer" : 0,
            "byteLength" : 4608,
            "byteOffset" : 109896
        },
        {
            "buffer" : 0,
            "byteLength" : 6912,
            "byteOffset" : 114504
        },
        {
            "buffer" : 0,
            "byteLength" : 6912,
            "byteOffset" : 121416
        },
        {
            "buffer" : 0,
            "byteLength" : 4608,
            "byteOffset" : 128328
        },
        {
            "buffer" : 0,
            "byteLength" : 6912,
            "byteOffset" : 132936
        },
        {
            "buffer" : 0,
            "byteLength" : 6912,
            "byteOffset" : 139848
        },
        {
            "buffer" : 0,
            "byteLength" : 4608,
            "byteOffset" : 146760
        },
        {
            "buffer" : 0,
            "byteLength" : 23232,
            "byteOffset" : 151368
        },
        {
            "buffer" : 0,
            "byteLength" : 23232,
            "byteOffset" : 174600
        },
        {
            "buffer" : 0,
            "byteLength" : 15488,
            "byteOffset" : 197832
        },
        {
            "buffer" : 0,
            "byteLength" : 5220,
            "byteOffset" : 213320
        },
        {
            "buffer" : 0,
            "byteLength" : 129460,
            "byteOffset" : 218540
        }
    ],
    "samplers" : [
        {
            "magFilter" : 9729,
            "minFilter" : 9987
        }
    ],
    "buffers" : [
        {
            "byteLength" : 348000,
            "uri" : "data:application/octet-stream;base64,"
        }
    ]
}
