{
    "asset" : {
        "generator" : "Khronos glTF Blender I/O v1.5.17",
        "version" : "2.0"
    },
    "scene" : 0,
    "scenes" : [
        {
            "name" : "Scene",
            "nodes" : [
                0
            ]
        }
    ],
    "nodes" : [
        {
            "mesh" : 0,
            "name" : "Ile 1",
            "rotation" : [
                0,
                -0.8066892623901367,
                0,
                -0.5909759998321533
            ],
            "scale" : [
                56.84442901611328,
                56.84442901611328,
                56.84442901611328
            ],
            "translation" : [
                0,
                0,
                -387.25506591796875
            ]
        }
    ],
    "materials" : [
        {
            "doubleSided" : true,
            "emissiveFactor" : [
                0.13843166828155518,
                0.1384316086769104,
                0.13843165338039398
            ],
            "name" : "Material.005",
            "pbrMetallicRoughness" : {
                "baseColorFactor" : [
                    0.05951105058193207,
                    1,
                    0,
                    1
                ],
                "metallicFactor" : 0,
                "roughnessFactor" : 0.5
            }
        },
        {
            "doubleSided" : true,
            "emissiveFactor" : [
                0.13843166828155518,
                0.1384316086769104,
                0.13843165338039398
            ],
            "name" : "Material.001",
            "pbrMetallicRoughness" : {
                "baseColorFactor" : [
                    0.05951105058193207,
                    1,
                    0,
                    1
                ],
                "metallicFactor" : 0,
                "roughnessFactor" : 0.5
            }
        },
        {
            "doubleSided" : true,
            "name" : "Material.004",
            "pbrMetallicRoughness" : {
                "baseColorFactor" : [
                    0.23390500247478485,
                    0.6891271471977234,
                    0.8000000715255737,
                    1
                ],
                "metallicFactor" : 0,
                "roughnessFactor" : 0.5
            }
        },
        {
            "doubleSided" : true,
            "name" : "Material.007",
            "pbrMetallicRoughness" : {
                "baseColorFactor" : [
                    0.09840356558561325,
                    0.2128310352563858,
                    0.8000000715255737,
                    1
                ],
                "metallicFactor" : 0,
                "roughnessFactor" : 0.5
            }
        },
        {
            "doubleSided" : true,
            "emissiveFactor" : [
                0.1375865638256073,
                0.1375865638256073,
                0.1375865638256073
            ],
            "name" : "Material.002",
            "pbrMetallicRoughness" : {
                "baseColorFactor" : [
                    0.05951105058193207,
                    1,
                    0,
                    1
                ],
                "metallicFactor" : 0,
                "roughnessFactor" : 0.5
            }
        },
        {
            "doubleSided" : true,
            "emissiveFactor" : [
                0.13843166828155518,
                0.1384316086769104,
                0.13843165338039398
            ],
            "name" : "Material.003",
            "pbrMetallicRoughness" : {
                "baseColorFactor" : [
                    1,
                    0.4905496835708618,
                    0.13737447559833527,
                    1
                ],
                "metallicFactor" : 0,
                "roughnessFactor" : 0.5
            }
        },
        {
            "doubleSided" : true,
            "emissiveFactor" : [
                0.13843166828155518,
                0.1384316086769104,
                0.13843165338039398
            ],
            "name" : "Material",
            "pbrMetallicRoughness" : {
                "baseColorFactor" : [
                    0.8000000715255737,
                    0.09396757930517197,
                    0.22821789979934692,
                    1
                ],
                "metallicFactor" : 0,
                "roughnessFactor" : 0.5
            }
        }
    ],
    "meshes" : [
        {
            "name" : "Cube.002",
            "primitives" : [
                {
                    "attributes" : {
                        "POSITION" : 0,
                        "NORMAL" : 1,
                        "TEXCOORD_0" : 2
                    },
                    "indices" : 3,
                    "material" : 0
                },
                {
                    "attributes" : {
                        "POSITION" : 4,
                        "NORMAL" : 5,
                        "TEXCOORD_0" : 6
                    },
                    "indices" : 7,
                    "material" : 1
                },
                {
                    "attributes" : {
                        "POSITION" : 8,
                        "NORMAL" : 9,
                        "TEXCOORD_0" : 10
                    },
                    "indices" : 11,
                    "material" : 2
                },
                {
                    "attributes" : {
                        "POSITION" : 12,
                        "NORMAL" : 13,
                        "TEXCOORD_0" : 14
                    },
                    "indices" : 15,
                    "material" : 3
                },
                {
                    "attributes" : {
                        "POSITION" : 16,
                        "NORMAL" : 17,
                        "TEXCOORD_0" : 18
                    },
                    "indices" : 19,
                    "material" : 4
                },
                {
                    "attributes" : {
                        "POSITION" : 20,
                        "NORMAL" : 21,
                        "TEXCOORD_0" : 22
                    },
                    "indices" : 23,
                    "material" : 5
                },
                {
                    "attributes" : {
                        "POSITION" : 24,
                        "NORMAL" : 25,
                        "TEXCOORD_0" : 26
                    },
                    "indices" : 27,
                    "material" : 6
                }
            ]
        }
    ],
    "accessors" : [
        {
            "bufferView" : 0,
            "componentType" : 5126,
            "count" : 1520,
            "max" : [
                2.3553125858306885,
                1.1164814233779907,
                2.190208673477173
            ],
            "min" : [
                -2.615233898162842,
                -1.9766994714736938,
                -2.2322890758514404
            ],
            "type" : "VEC3"
        },
        {
            "bufferView" : 1,
            "componentType" : 5126,
            "count" : 1520,
            "type" : "VEC3"
        },
        {
            "bufferView" : 2,
            "componentType" : 5126,
            "count" : 1520,
            "type" : "VEC2"
        },
        {
            "bufferView" : 3,
            "componentType" : 5123,
            "count" : 2388,
            "type" : "SCALAR"
        },
        {
            "bufferView" : 4,
            "componentType" : 5126,
            "count" : 1520,
            "max" : [
                -4.145191192626953,
                1.1321043968200684,
                0.25492024421691895
            ],
            "min" : [
                -8.61491870880127,
                -1.961076259613037,
                -4.850707054138184
            ],
            "type" : "VEC3"
        },
        {
            "bufferView" : 5,
            "componentType" : 5126,
            "count" : 1520,
            "type" : "VEC3"
        },
        {
            "bufferView" : 6,
            "componentType" : 5126,
            "count" : 1520,
            "type" : "VEC2"
        },
        {
            "bufferView" : 7,
            "componentType" : 5123,
            "count" : 2388,
            "type" : "SCALAR"
        },
        {
            "bufferView" : 8,
            "componentType" : 5126,
            "count" : 2327,
            "max" : [
                -1.2378685474395752,
                1.6127828359603882,
                -0.07685285806655884
            ],
            "min" : [
                -5.206305503845215,
                0.3845880627632141,
                -1.9780850410461426
            ],
            "type" : "VEC3"
        },
        {
            "bufferView" : 9,
            "componentType" : 5126,
            "count" : 2327,
            "type" : "VEC3"
        },
        {
            "bufferView" : 10,
            "componentType" : 5126,
            "count" : 2327,
            "type" : "VEC2"
        },
        {
            "bufferView" : 11,
            "componentType" : 5123,
            "count" : 3537,
            "type" : "SCALAR"
        },
        {
            "bufferView" : 12,
            "componentType" : 5126,
            "count" : 708,
            "max" : [
                -2.9833412170410156,
                0.5352222919464111,
                -0.6177780032157898
            ],
            "min" : [
                -3.6252336502075195,
                0.08924034237861633,
                -1.3813974857330322
            ],
            "type" : "VEC3"
        },
        {
            "bufferView" : 13,
            "componentType" : 5126,
            "count" : 708,
            "type" : "VEC3"
        },
        {
            "bufferView" : 14,
            "componentType" : 5126,
            "count" : 708,
            "type" : "VEC2"
        },
        {
            "bufferView" : 15,
            "componentType" : 5123,
            "count" : 816,
            "type" : "SCALAR"
        },
        {
            "bufferView" : 16,
            "componentType" : 5126,
            "count" : 1520,
            "max" : [
                -8.910619735717773,
                0.5580486059188843,
                5.481168746948242
            ],
            "min" : [
                -15.101993560791016,
                -2.535132646560669,
                -0.01679229736328125
            ],
            "type" : "VEC3"
        },
        {
            "bufferView" : 17,
            "componentType" : 5126,
            "count" : 1520,
            "type" : "VEC3"
        },
        {
            "bufferView" : 18,
            "componentType" : 5126,
            "count" : 1520,
            "type" : "VEC2"
        },
        {
            "bufferView" : 19,
            "componentType" : 5123,
            "count" : 2388,
            "type" : "SCALAR"
        },
        {
            "bufferView" : 20,
            "componentType" : 5126,
            "count" : 516,
            "max" : [
                -7.619231700897217,
                1.5959850549697876,
                1.7290292978286743
            ],
            "min" : [
                -11.275042533874512,
                0.35764309763908386,
                -1.0974934101104736
            ],
            "type" : "VEC3"
        },
        {
            "bufferView" : 21,
            "componentType" : 5126,
            "count" : 516,
            "type" : "VEC3"
        },
        {
            "bufferView" : 22,
            "componentType" : 5126,
            "count" : 516,
            "type" : "VEC2"
        },
        {
            "bufferView" : 23,
            "componentType" : 5123,
            "count" : 852,
            "type" : "SCALAR"
        },
        {
            "bufferView" : 24,
            "componentType" : 5126,
            "count" : 1864,
            "max" : [
                -7.600334167480469,
                1.9251478910446167,
                1.9050850868225098
            ],
            "min" : [
                -11.54133415222168,
                0.9464849233627319,
                -1.1065545082092285
            ],
            "type" : "VEC3"
        },
        {
            "bufferView" : 25,
            "componentType" : 5126,
            "count" : 1864,
            "type" : "VEC3"
        },
        {
            "bufferView" : 26,
            "componentType" : 5126,
            "count" : 1864,
            "type" : "VEC2"
        },
        {
            "bufferView" : 27,
            "componentType" : 5123,
            "count" : 2796,
            "type" : "SCALAR"
        }
    ],
    "bufferViews" : [
        {
            "buffer" : 0,
            "byteLength" : 18240,
            "byteOffset" : 0
        },
        {
            "buffer" : 0,
            "byteLength" : 18240,
            "byteOffset" : 18240
        },
        {
            "buffer" : 0,
            "byteLength" : 12160,
            "byteOffset" : 36480
        },
        {
            "buffer" : 0,
            "byteLength" : 4776,
            "byteOffset" : 48640
        },
        {
            "buffer" : 0,
            "byteLength" : 18240,
            "byteOffset" : 53416
        },
        {
            "buffer" : 0,
            "byteLength" : 18240,
            "byteOffset" : 71656
        },
        {
            "buffer" : 0,
            "byteLength" : 12160,
            "byteOffset" : 89896
        },
        {
            "buffer" : 0,
            "byteLength" : 4776,
            "byteOffset" : 102056
        },
        {
            "buffer" : 0,
            "byteLength" : 27924,
            "byteOffset" : 106832
        },
        {
            "buffer" : 0,
            "byteLength" : 27924,
            "byteOffset" : 134756
        },
        {
            "buffer" : 0,
            "byteLength" : 18616,
            "byteOffset" : 162680
        },
        {
            "buffer" : 0,
            "byteLength" : 7074,
            "byteOffset" : 181296
        },
        {
            "buffer" : 0,
            "byteLength" : 8496,
            "byteOffset" : 188372
        },
        {
            "buffer" : 0,
            "byteLength" : 8496,
            "byteOffset" : 196868
        },
        {
            "buffer" : 0,
            "byteLength" : 5664,
            "byteOffset" : 205364
        },
        {
            "buffer" : 0,
            "byteLength" : 1632,
            "byteOffset" : 211028
        },
        {
            "buffer" : 0,
            "byteLength" : 18240,
            "byteOffset" : 212660
        },
        {
            "buffer" : 0,
            "byteLength" : 18240,
            "byteOffset" : 230900
        },
        {
            "buffer" : 0,
            "byteLength" : 12160,
            "byteOffset" : 249140
        },
        {
            "buffer" : 0,
            "byteLength" : 4776,
            "byteOffset" : 261300
        },
        {
            "buffer" : 0,
            "byteLength" : 6192,
            "byteOffset" : 266076
        },
        {
            "buffer" : 0,
            "byteLength" : 6192,
            "byteOffset" : 272268
        },
        {
            "buffer" : 0,
            "byteLength" : 4128,
            "byteOffset" : 278460
        },
        {
            "buffer" : 0,
            "byteLength" : 1704,
            "byteOffset" : 282588
        },
        {
            "buffer" : 0,
            "byteLength" : 22368,
            "byteOffset" : 284292
        },
        {
            "buffer" : 0,
            "byteLength" : 22368,
            "byteOffset" : 306660
        },
        {
            "buffer" : 0,
            "byteLength" : 14912,
            "byteOffset" : 329028
        },
        {
            "buffer" : 0,
            "byteLength" : 5592,
            "byteOffset" : 343940
        }
    ],
    "buffers" : [
        {
            "byteLength" : 349532,
            "uri" : "data:application/octet-stream;base64,"
        }
    ]
}
