{
    "asset" : {
        "generator" : "Khronos glTF Blender I/O v1.7.1",
        "version" : "2.0"
    },
    "scene" : 0,
    "scenes" : [
        {
            "name" : "Scene",
            "nodes" : [
                0,
                1,
                2
            ]
        }
    ],
    "nodes" : [
        {
            "mesh" : 0,
            "name" : "Cylinder.002",
            "rotation" : [
                0,
                -0.009587202221155167,
                0,
                0.9999540448188782
            ],
            "scale" : [
                0.06413621455430984,
                0.06413621455430984,
                0.06413621455430984
            ],
            "translation" : [
                6.684871673583984,
                0,
                2.1792924404144287
            ]
        },
        {
            "mesh" : 1,
            "name" : "Cylinder.001",
            "rotation" : [
                0,
                0.011903082020580769,
                0,
                0.9999292492866516
            ],
            "scale" : [
                0.06413621455430984,
                0.06413621455430984,
                0.06413621455430984
            ],
            "translation" : [
                6.684871673583984,
                0,
                -2.2324910163879395
            ]
        },
        {
            "mesh" : 2,
            "name" : "Cube.001",
            "scale" : [
                1,
                1,
                8.574156761169434
            ],
            "translation" : [
                7.806328773498535,
                0.8954173922538757,
                0
            ]
        }
    ],
    "materials" : [
        {
            "doubleSided" : true,
            "name" : "Material.003",
            "pbrMetallicRoughness" : {
                "baseColorTexture" : {
                    "index" : 0
                },
                "metallicFactor" : 0,
                "roughnessFactor" : 0.5
            }
        },
        {
            "doubleSided" : true,
            "name" : "Material.002",
            "pbrMetallicRoughness" : {
                "baseColorTexture" : {
                    "index" : 1
                },
                "metallicFactor" : 0,
                "roughnessFactor" : 0.5
            }
        },
        {
            "doubleSided" : true,
            "name" : "Material.001",
            "pbrMetallicRoughness" : {
                "baseColorTexture" : {
                    "index" : 2
                },
                "metallicFactor" : 0,
                "roughnessFactor" : 0.5
            }
        }
    ],
    "meshes" : [
        {
            "name" : "Cylinder.004",
            "primitives" : [
                {
                    "attributes" : {
                        "POSITION" : 0,
                        "NORMAL" : 1,
                        "TEXCOORD_0" : 2
                    },
                    "indices" : 3,
                    "material" : 0
                }
            ]
        },
        {
            "name" : "Cylinder.009",
            "primitives" : [
                {
                    "attributes" : {
                        "POSITION" : 4,
                        "NORMAL" : 5,
                        "TEXCOORD_0" : 6
                    },
                    "indices" : 3,
                    "material" : 1
                }
            ]
        },
        {
            "name" : "Cube.001",
            "primitives" : [
                {
                    "attributes" : {
                        "POSITION" : 7,
                        "NORMAL" : 8,
                        "TEXCOORD_0" : 9
                    },
                    "indices" : 10,
                    "material" : 2
                }
            ]
        }
    ],
    "textures" : [
        {
            "sampler" : 0,
            "source" : 0
        },
        {
            "sampler" : 0,
            "source" : 0
        },
        {
            "sampler" : 0,
            "source" : 1
        }
    ],
    "images" : [
        {
            "bufferView" : 4,
            "mimeType" : "image/png",
            "name" : "barrriere"
        },
        {
            "bufferView" : 12,
            "mimeType" : "image/png",
            "name" : "Untitled"
        }
    ],
    "accessors" : [
        {
            "bufferView" : 0,
            "componentType" : 5126,
            "count" : 17912,
            "max" : [
                1.7155189514160156,
                19.85469627380371,
                1.7323981523513794
            ],
            "min" : [
                -210.4330596923828,
                -1.0000001192092896,
                -1.6986395120620728
            ],
            "type" : "VEC3"
        },
        {
            "bufferView" : 1,
            "componentType" : 5126,
            "count" : 17912,
            "type" : "VEC3"
        },
        {
            "bufferView" : 2,
            "componentType" : 5126,
            "count" : 17912,
            "type" : "VEC2"
        },
        {
            "bufferView" : 3,
            "componentType" : 5123,
            "count" : 27792,
            "type" : "SCALAR"
        },
        {
            "bufferView" : 5,
            "componentType" : 5126,
            "count" : 17912,
            "max" : [
                1.7155189514160156,
                19.85469627380371,
                1.7323981523513794
            ],
            "min" : [
                -210.4330596923828,
                -1.0000001192092896,
                -1.6986395120620728
            ],
            "type" : "VEC3"
        },
        {
            "bufferView" : 6,
            "componentType" : 5126,
            "count" : 17912,
            "type" : "VEC3"
        },
        {
            "bufferView" : 7,
            "componentType" : 5126,
            "count" : 17912,
            "type" : "VEC2"
        },
        {
            "bufferView" : 8,
            "componentType" : 5126,
            "count" : 1235,
            "max" : [
                11.187432289123535,
                8.295135498046875,
                1.1132640838623047
            ],
            "min" : [
                -14.773588180541992,
                -1.2238092422485352,
                -1.1132640838623047
            ],
            "type" : "VEC3"
        },
        {
            "bufferView" : 9,
            "componentType" : 5126,
            "count" : 1235,
            "type" : "VEC3"
        },
        {
            "bufferView" : 10,
            "componentType" : 5126,
            "count" : 1235,
            "type" : "VEC2"
        },
        {
            "bufferView" : 11,
            "componentType" : 5123,
            "count" : 2265,
            "type" : "SCALAR"
        }
    ],
    "bufferViews" : [
        {
            "buffer" : 0,
            "byteLength" : 214944,
            "byteOffset" : 0
        },
        {
            "buffer" : 0,
            "byteLength" : 214944,
            "byteOffset" : 214944
        },
        {
            "buffer" : 0,
            "byteLength" : 143296,
            "byteOffset" : 429888
        },
        {
            "buffer" : 0,
            "byteLength" : 55584,
            "byteOffset" : 573184
        },
        {
            "buffer" : 0,
            "byteLength" : 94317,
            "byteOffset" : 628768
        },
        {
            "buffer" : 0,
            "byteLength" : 214944,
            "byteOffset" : 723088
        },
        {
            "buffer" : 0,
            "byteLength" : 214944,
            "byteOffset" : 938032
        },
        {
            "buffer" : 0,
            "byteLength" : 143296,
            "byteOffset" : 1152976
        },
        {
            "buffer" : 0,
            "byteLength" : 14820,
            "byteOffset" : 1296272
        },
        {
            "buffer" : 0,
            "byteLength" : 14820,
            "byteOffset" : 1311092
        },
        {
            "buffer" : 0,
            "byteLength" : 9880,
            "byteOffset" : 1325912
        },
        {
            "buffer" : 0,
            "byteLength" : 4530,
            "byteOffset" : 1335792
        },
        {
            "buffer" : 0,
            "byteLength" : 407857,
            "byteOffset" : 1340324
        }
    ],
    "samplers" : [
        {
            "magFilter" : 9729,
            "minFilter" : 9987
        }
    ],
    "buffers" : [
        {
            "byteLength" : 1748184,
            "uri" : "data:application/octet-stream;base64,"
        }
    ]
}
