<?xml version="1.0" encoding="UTF-8" standalone="no"?><!DOCTYPE svg PUBLIC "-//W3C//DTD SVG 1.1//EN" "http://www.w3.org/Graphics/SVG/1.1/DTD/svg11.dtd"><svg width="100%" height="100%" viewBox="0 0 1920 1080" version="1.1" xmlns="http://www.w3.org/2000/svg" xmlns:xlink="http://www.w3.org/1999/xlink" xml:space="preserve" xmlns:serif="http://www.serif.com/" style="fill-rule:evenodd;clip-rule:evenodd;stroke-linejoin:round;stroke-miterlimit:2;"><g><path d="M1051.72,567.986c-13.056,7.147 -25.196,11.398 -34.84,13.986c3.439,-5.301 13.828,-22.81 11.352,-46.456c-1.789,-17.07 -9.442,-29.086 -13.461,-34.574c10.464,3.256 23.119,8.124 36.684,15.582c15.025,8.246 26.84,17.303 35.633,25.07c-7.954,7.879 -19.599,17.755 -35.368,26.392m-91.699,21.691c-27.241,-0 -49.337,-22.079 -49.337,-49.339c0,-27.241 22.096,-49.337 49.337,-49.337c27.258,0 49.339,22.096 49.339,49.337c-0,27.26 -22.081,49.339 -49.339,49.339m-56.022,-9.133c-9.642,-2.603 -21.783,-6.837 -34.839,-13.984c-15.769,-8.637 -27.413,-18.513 -35.367,-26.392c8.79,-7.782 20.607,-16.824 35.631,-25.07c13.567,-7.475 26.22,-12.344 36.685,-15.582c-4.016,5.471 -11.675,17.504 -13.458,34.574c-2.497,23.634 7.908,41.15 11.348,46.454m74.689,-108.473c-45.755,-4.421 -80.717,9.658 -98.703,17.149c-37.572,15.643 -62.752,37.877 -76.551,52.002c12.606,12.157 32.25,28.64 59.383,42.749c19.785,10.279 53.959,28.048 100.554,27.71c60.764,-0.434 103.994,-31.37 120.877,-43.803c13.891,-10.233 24.172,-20.281 30.857,-27.43c-9.66,-9.334 -23.941,-21.693 -42.999,-33.539c-19.269,-11.985 -50.047,-30.653 -93.418,-34.838" style="fill:#fff;fill-rule:nonzero;"/><path d="M959.473,554.218c-7.437,0 -13.448,-6.029 -13.448,-13.45c0,-7.425 6.011,-13.452 13.448,-13.452c7.423,-0 13.451,6.027 13.451,13.452c-0,7.421 -6.028,13.45 -13.451,13.45m0.526,-44.251c-17.395,0 -31.491,14.108 -31.491,31.49c0,17.394 14.096,31.488 31.491,31.488c17.394,0 31.492,-14.094 31.492,-31.488c-0,-17.382 -14.098,-31.49 -31.492,-31.49" style="fill:#fff;fill-rule:nonzero;"/></g></svg>