<?xml version="1.0" standalone="no"?>
<!DOCTYPE svg PUBLIC "-//W3C//DTD SVG 20010904//EN"
 "http://www.w3.org/TR/2001/REC-SVG-20010904/DTD/svg10.dtd">
<svg version="1.0" xmlns="http://www.w3.org/2000/svg"
 width="1280.000000pt" height="660.000000pt" viewBox="0 0 1280.000000 660.000000"
 preserveAspectRatio="xMidYMid meet">
<metadata>
Created by potrace 1.15, written by Peter Selinger 2001-2017
</metadata>
<g transform="translate(0.000000,660.000000) scale(0.100000,-0.100000)"
fill="#000000" stroke="none">
<path d="M6070 6593 c-578 -30 -1103 -117 -1645 -273 -1452 -417 -2914 -1310
-4363 -2666 l-63 -59 127 -145 c836 -957 1647 -1692 2480 -2248 943 -629 1905
-1014 2865 -1146 301 -42 447 -51 789 -50 327 0 455 8 740 45 1208 156 2449
704 3695 1634 680 507 1306 1073 2053 1856 l53 56 -173 155 c-836 750 -1650
1343 -2453 1788 -1285 712 -2585 1069 -3845 1058 -113 -1 -230 -3 -260 -5z
m676 -913 c1387 -110 2761 -784 4161 -2043 l133 -119 -29 -37 c-44 -54 -566
-570 -716 -707 -1098 -1004 -2178 -1602 -3248 -1798 -281 -52 -390 -61 -747
-61 -425 0 -639 24 -1005 115 -1099 271 -2200 1002 -3245 2155 -166 183 -273
305 -283 321 -10 16 308 305 598 544 1163 957 2375 1513 3535 1619 63 6 131
13 150 14 85 9 579 6 696 -3z"/>
<path d="M6210 5189 c-286 -30 -602 -143 -840 -299 -441 -290 -737 -728 -840
-1242 -81 -403 -26 -828 155 -1206 286 -597 854 -999 1520 -1077 214 -25 396
-16 615 31 910 195 1557 1026 1516 1949 -6 152 -40 382 -59 401 -4 4 -208 -47
-1002 -251 -632 -162 -847 -216 -850 -213 -3 3 461 646 866 1202 132 180 243
334 245 341 10 26 -257 178 -430 244 -282 109 -602 152 -896 120z"/>
</g>
</svg>
