{
    "asset" : {
        "generator" : "Khronos glTF Blender I/O v1.6.16",
        "version" : "2.0"
    },
    "scene" : 0,
    "scenes" : [
        {
            "name" : "Scene",
            "nodes" : [
                0,
                1,
                2
            ]
        }
    ],
    "nodes" : [
        {
            "mesh" : 0,
            "name" : "bouton",
            "scale" : [
                0.7235028743743896,
                0.1783325970172882,
                0.7235028743743896
            ],
            "translation" : [
                -0.4425756335258484,
                2.973788022994995,
                -2.359389543533325
            ]
        },
        {
            "mesh" : 1,
            "name" : "objectif",
            "rotation" : [
                0,
                0,
                -0.7071067690849304,
                0.7071068286895752
            ],
            "scale" : [
                2.0505003929138184,
                2.0505003929138184,
                2.0505003929138184
            ],
            "translation" : [
                2.5143470764160156,
                -0.3356233239173889,
                0.04270017519593239
            ]
        },
        {
            "mesh" : 2,
            "name" : "boitier",
            "scale" : [
                1.729376196861267,
                2.4207005500793457,
                4.325148582458496
            ],
            "translation" : [
                -0.21301725506782532,
                0.0010507702827453613,
                0
            ]
        }
    ],
    "materials" : [
        {
            "doubleSided" : true,
            "name" : "Material",
            "pbrMetallicRoughness" : {
                "baseColorTexture" : {
                    "index" : 0
                },
                "metallicFactor" : 0,
                "roughnessFactor" : 0.5
            }
        },
        {
            "doubleSided" : true,
            "name" : "Material.002",
            "pbrMetallicRoughness" : {
                "baseColorTexture" : {
                    "index" : 1
                },
                "metallicFactor" : 0,
                "roughnessFactor" : 0.5
            }
        },
        {
            "doubleSided" : true,
            "name" : "Material.001",
            "pbrMetallicRoughness" : {
                "baseColorTexture" : {
                    "index" : 2
                },
                "metallicFactor" : 0,
                "roughnessFactor" : 0.5
            }
        }
    ],
    "meshes" : [
        {
            "name" : "Cylinder.001",
            "primitives" : [
                {
                    "attributes" : {
                        "POSITION" : 0,
                        "NORMAL" : 1,
                        "TEXCOORD_0" : 2
                    },
                    "indices" : 3,
                    "material" : 0
                }
            ]
        },
        {
            "name" : "Cylinder",
            "primitives" : [
                {
                    "attributes" : {
                        "POSITION" : 4,
                        "NORMAL" : 5,
                        "TEXCOORD_0" : 6
                    },
                    "indices" : 7,
                    "material" : 1
                }
            ]
        },
        {
            "name" : "Cube",
            "primitives" : [
                {
                    "attributes" : {
                        "POSITION" : 8,
                        "NORMAL" : 9,
                        "TEXCOORD_0" : 10
                    },
                    "indices" : 11,
                    "material" : 2
                }
            ]
        }
    ],
    "textures" : [
        {
            "sampler" : 0,
            "source" : 0
        },
        {
            "sampler" : 0,
            "source" : 1
        },
        {
            "sampler" : 0,
            "source" : 2
        }
    ],
    "images" : [
        {
            "bufferView" : 4,
            "mimeType" : "image/png",
            "name" : "bouton"
        },
        {
            "bufferView" : 9,
            "mimeType" : "image/png",
            "name" : "objectif"
        },
        {
            "bufferView" : 14,
            "mimeType" : "image/png",
            "name" : "boitier"
        }
    ],
    "accessors" : [
        {
            "bufferView" : 0,
            "componentType" : 5126,
            "count" : 1080,
            "max" : [
                1,
                1.1004295349121094,
                1
            ],
            "min" : [
                -1,
                -1,
                -1
            ],
            "type" : "VEC3"
        },
        {
            "bufferView" : 1,
            "componentType" : 5126,
            "count" : 1080,
            "type" : "VEC3"
        },
        {
            "bufferView" : 2,
            "componentType" : 5126,
            "count" : 1080,
            "type" : "VEC2"
        },
        {
            "bufferView" : 3,
            "componentType" : 5123,
            "count" : 1716,
            "type" : "SCALAR"
        },
        {
            "bufferView" : 5,
            "componentType" : 5126,
            "count" : 2934,
            "max" : [
                1.0144985914230347,
                1.9774051904678345,
                1
            ],
            "min" : [
                -1.0064774751663208,
                -0.7906143069267273,
                -1
            ],
            "type" : "VEC3"
        },
        {
            "bufferView" : 6,
            "componentType" : 5126,
            "count" : 2934,
            "type" : "VEC3"
        },
        {
            "bufferView" : 7,
            "componentType" : 5126,
            "count" : 2934,
            "type" : "VEC2"
        },
        {
            "bufferView" : 8,
            "componentType" : 5123,
            "count" : 4596,
            "type" : "SCALAR"
        },
        {
            "bufferView" : 10,
            "componentType" : 5126,
            "count" : 1228,
            "max" : [
                1.8553190231323242,
                1.4882733821868896,
                1
            ],
            "min" : [
                -0.8016000390052795,
                -1.0296891927719116,
                -0.7821701765060425
            ],
            "type" : "VEC3"
        },
        {
            "bufferView" : 11,
            "componentType" : 5126,
            "count" : 1228,
            "type" : "VEC3"
        },
        {
            "bufferView" : 12,
            "componentType" : 5126,
            "count" : 1228,
            "type" : "VEC2"
        },
        {
            "bufferView" : 13,
            "componentType" : 5123,
            "count" : 1938,
            "type" : "SCALAR"
        }
    ],
    "bufferViews" : [
        {
            "buffer" : 0,
            "byteLength" : 12960,
            "byteOffset" : 0
        },
        {
            "buffer" : 0,
            "byteLength" : 12960,
            "byteOffset" : 12960
        },
        {
            "buffer" : 0,
            "byteLength" : 8640,
            "byteOffset" : 25920
        },
        {
            "buffer" : 0,
            "byteLength" : 3432,
            "byteOffset" : 34560
        },
        {
            "buffer" : 0,
            "byteLength" : 82696,
            "byteOffset" : 37992
        },
        {
            "buffer" : 0,
            "byteLength" : 35208,
            "byteOffset" : 120688
        },
        {
            "buffer" : 0,
            "byteLength" : 35208,
            "byteOffset" : 155896
        },
        {
            "buffer" : 0,
            "byteLength" : 23472,
            "byteOffset" : 191104
        },
        {
            "buffer" : 0,
            "byteLength" : 9192,
            "byteOffset" : 214576
        },
        {
            "buffer" : 0,
            "byteLength" : 249866,
            "byteOffset" : 223768
        },
        {
            "buffer" : 0,
            "byteLength" : 14736,
            "byteOffset" : 473636
        },
        {
            "buffer" : 0,
            "byteLength" : 14736,
            "byteOffset" : 488372
        },
        {
            "buffer" : 0,
            "byteLength" : 9824,
            "byteOffset" : 503108
        },
        {
            "buffer" : 0,
            "byteLength" : 3876,
            "byteOffset" : 512932
        },
        {
            "buffer" : 0,
            "byteLength" : 149393,
            "byteOffset" : 516808
        }
    ],
    "samplers" : [
        {
            "magFilter" : 9729,
            "minFilter" : 9987
        }
    ],
    "buffers" : [
        {
            "byteLength" : 666204,
            "uri" : "data:application/octet-stream;base64,"
        }
    ]
}
