{
    "asset" : {
        "generator" : "Khronos glTF Blender I/O v1.7.1",
        "version" : "2.0"
    },
    "scene" : 0,
    "scenes" : [
        {
            "name" : "Scene",
            "nodes" : [
                0,
                1
            ]
        }
    ],
    "nodes" : [
        {
            "mesh" : 0,
            "name" : "Van",
            "rotation" : [
                -0.26005005836486816,
                0.26005008816719055,
                -0.6575514078140259,
                0.6575514674186707
            ],
            "scale" : [
                1.0335408449172974,
                0.5060767531394958,
                1.0335407257080078
            ],
            "translation" : [
                -4.997291088104248,
                5.151926040649414,
                -1.8603239059448242
            ]
        },
        {
            "mesh" : 1,
            "name" : "soleil",
            "rotation" : [
                -0.0013749300269410014,
                -0.7071054577827454,
                0.0013749300269410014,
                0.7071054577827454
            ],
            "scale" : [
                5.4970831871032715,
                15.790450096130371,
                5.496179103851318
            ],
            "translation" : [
                0.13520097732543945,
                -11.630367279052734,
                0.1728113293647766
            ]
        }
    ],
    "materials" : [
        {
            "doubleSided" : true,
            "name" : "Material.004",
            "pbrMetallicRoughness" : {
                "baseColorTexture" : {
                    "index" : 0
                },
                "metallicFactor" : 0,
                "roughnessFactor" : 0.5
            }
        },
        {
            "doubleSided" : true,
            "name" : "Material.005",
            "pbrMetallicRoughness" : {
                "baseColorTexture" : {
                    "index" : 1
                },
                "metallicFactor" : 0,
                "roughnessFactor" : 0.5
            }
        },
        {
            "doubleSided" : true,
            "name" : "Material.014",
            "pbrMetallicRoughness" : {
                "baseColorFactor" : [
                    0.8387994170188904,
                    0.12213870137929916,
                    0.0497065931558609,
                    1
                ],
                "metallicFactor" : 0.8048780560493469
            }
        }
    ],
    "meshes" : [
        {
            "name" : "Cylinder",
            "primitives" : [
                {
                    "attributes" : {
                        "POSITION" : 0,
                        "NORMAL" : 1,
                        "TEXCOORD_0" : 2
                    },
                    "indices" : 3,
                    "material" : 0
                },
                {
                    "attributes" : {
                        "POSITION" : 4,
                        "NORMAL" : 5,
                        "TEXCOORD_0" : 6
                    },
                    "indices" : 7,
                    "material" : 1
                }
            ]
        },
        {
            "name" : "Cylinder.001",
            "primitives" : [
                {
                    "attributes" : {
                        "POSITION" : 8,
                        "NORMAL" : 9,
                        "TEXCOORD_0" : 10
                    },
                    "indices" : 11,
                    "material" : 2
                }
            ]
        }
    ],
    "textures" : [
        {
            "sampler" : 0,
            "source" : 0
        },
        {
            "sampler" : 0,
            "source" : 1
        }
    ],
    "images" : [
        {
            "bufferView" : 4,
            "mimeType" : "image/png",
            "name" : "Material"
        },
        {
            "bufferView" : 9,
            "mimeType" : "image/png",
            "name" : "V2"
        }
    ],
    "accessors" : [
        {
            "bufferView" : 0,
            "componentType" : 5126,
            "count" : 2625,
            "max" : [
                1.0000001192092896,
                10.426604270935059,
                10.820839881896973
            ],
            "min" : [
                -1,
                -1,
                -1.0000001192092896
            ],
            "type" : "VEC3"
        },
        {
            "bufferView" : 1,
            "componentType" : 5126,
            "count" : 2625,
            "type" : "VEC3"
        },
        {
            "bufferView" : 2,
            "componentType" : 5126,
            "count" : 2625,
            "type" : "VEC2"
        },
        {
            "bufferView" : 3,
            "componentType" : 5123,
            "count" : 3024,
            "type" : "SCALAR"
        },
        {
            "bufferView" : 5,
            "componentType" : 5126,
            "count" : 1951,
            "max" : [
                0.1469430923461914,
                11.049365997314453,
                13.82583999633789
            ],
            "min" : [
                -5.8972978591918945,
                -1.7172226905822754,
                -2.6402621269226074
            ],
            "type" : "VEC3"
        },
        {
            "bufferView" : 6,
            "componentType" : 5126,
            "count" : 1951,
            "type" : "VEC3"
        },
        {
            "bufferView" : 7,
            "componentType" : 5126,
            "count" : 1951,
            "type" : "VEC2"
        },
        {
            "bufferView" : 8,
            "componentType" : 5123,
            "count" : 2610,
            "type" : "SCALAR"
        },
        {
            "bufferView" : 10,
            "componentType" : 5126,
            "count" : 345,
            "max" : [
                1.5384635925292969,
                1,
                1.5384643077850342
            ],
            "min" : [
                -1.538464903831482,
                -1,
                -1.538464069366455
            ],
            "type" : "VEC3"
        },
        {
            "bufferView" : 11,
            "componentType" : 5126,
            "count" : 345,
            "type" : "VEC3"
        },
        {
            "bufferView" : 12,
            "componentType" : 5126,
            "count" : 345,
            "type" : "VEC2"
        },
        {
            "bufferView" : 13,
            "componentType" : 5123,
            "count" : 372,
            "type" : "SCALAR"
        }
    ],
    "bufferViews" : [
        {
            "buffer" : 0,
            "byteLength" : 31500,
            "byteOffset" : 0
        },
        {
            "buffer" : 0,
            "byteLength" : 31500,
            "byteOffset" : 31500
        },
        {
            "buffer" : 0,
            "byteLength" : 21000,
            "byteOffset" : 63000
        },
        {
            "buffer" : 0,
            "byteLength" : 6048,
            "byteOffset" : 84000
        },
        {
            "buffer" : 0,
            "byteLength" : 64342,
            "byteOffset" : 90048
        },
        {
            "buffer" : 0,
            "byteLength" : 23412,
            "byteOffset" : 154392
        },
        {
            "buffer" : 0,
            "byteLength" : 23412,
            "byteOffset" : 177804
        },
        {
            "buffer" : 0,
            "byteLength" : 15608,
            "byteOffset" : 201216
        },
        {
            "buffer" : 0,
            "byteLength" : 5220,
            "byteOffset" : 216824
        },
        {
            "buffer" : 0,
            "byteLength" : 191056,
            "byteOffset" : 222044
        },
        {
            "buffer" : 0,
            "byteLength" : 4140,
            "byteOffset" : 413100
        },
        {
            "buffer" : 0,
            "byteLength" : 4140,
            "byteOffset" : 417240
        },
        {
            "buffer" : 0,
            "byteLength" : 2760,
            "byteOffset" : 421380
        },
        {
            "buffer" : 0,
            "byteLength" : 744,
            "byteOffset" : 424140
        }
    ],
    "samplers" : [
        {
            "magFilter" : 9729,
            "minFilter" : 9987
        }
    ],
    "buffers" : [
        {
            "byteLength" : 424884,
            "uri" : "data:application/octet-stream;base64,"
        }
    ]
}
