{
    "asset" : {
        "generator" : "Khronos glTF Blender I/O v1.4.40",
        "version" : "2.0"
    },
    "scene" : 0,
    "scenes" : [
        {
            "name" : "Scene",
            "nodes" : [
                0
            ]
        }
    ],
    "nodes" : [
        {
            "mesh" : 0,
            "name" : "Cube",
            "scale" : [
                56.84442901611328,
                56.84442901611328,
                56.84442901611328
            ]
        }
    ],
    "materials" : [
        {
            "doubleSided" : true,
            "emissiveFactor" : [
                0.1375865638256073,
                0.1375865638256073,
                0.1375865638256073
            ],
            "name" : "Material.001",
            "pbrMetallicRoughness" : {
                "baseColorFactor" : [
                    0.8000000715255737,
                    0.40787845849990845,
                    0.13994891941547394,
                    1
                ],
                "metallicFactor" : 0,
                "roughnessFactor" : 0.5
            }
        }
    ],
    "meshes" : [
        {
            "name" : "Cube.001",
            "primitives" : [
                {
                    "attributes" : {
                        "POSITION" : 0,
                        "NORMAL" : 1,
                        "TEXCOORD_0" : 2
                    },
                    "indices" : 3,
                    "material" : 0
                }
            ]
        }
    ],
    "accessors" : [
        {
            "bufferView" : 0,
            "componentType" : 5126,
            "count" : 1520,
            "max" : [
                2.3553125858306885,
                1.1164814233779907,
                2.190208673477173
            ],
            "min" : [
                -2.615233898162842,
                -1.9766994714736938,
                -2.2322890758514404
            ],
            "type" : "VEC3"
        },
        {
            "bufferView" : 1,
            "componentType" : 5126,
            "count" : 1520,
            "type" : "VEC3"
        },
        {
            "bufferView" : 2,
            "componentType" : 5126,
            "count" : 1520,
            "type" : "VEC2"
        },
        {
            "bufferView" : 3,
            "componentType" : 5123,
            "count" : 2388,
            "type" : "SCALAR"
        }
    ],
    "bufferViews" : [
        {
            "buffer" : 0,
            "byteLength" : 18240,
            "byteOffset" : 0
        },
        {
            "buffer" : 0,
            "byteLength" : 18240,
            "byteOffset" : 18240
        },
        {
            "buffer" : 0,
            "byteLength" : 12160,
            "byteOffset" : 36480
        },
        {
            "buffer" : 0,
            "byteLength" : 4776,
            "byteOffset" : 48640
        }
    ],
    "buffers" : [
        {
            "byteLength" : 53416,
            "uri" : "data:application/octet-stream;base64,"
        }
    ]
}
