{
    "asset" : {
        "generator" : "Khronos glTF Blender I/O v1.7.1",
        "version" : "2.0"
    },
    "scene" : 0,
    "scenes" : [
        {
            "name" : "Scene",
            "nodes" : [
                0,
                1,
                2,
                3,
                4,
                5,
                6
            ]
        }
    ],
    "nodes" : [
        {
            "mesh" : 0,
            "name" : "explosion2",
            "scale" : [
                19.255367279052734,
                19.255367279052734,
                26.50722312927246
            ],
            "translation" : [
                312.3427734375,
                7.140103340148926,
                10.030961036682129
            ]
        },
        {
            "mesh" : 1,
            "name" : "Triangle",
            "scale" : [
                26.999523162841797,
                26.999523162841797,
                20.941085815429688
            ],
            "translation" : [
                -107.93394470214844,
                38.412841796875,
                9.081964492797852
            ]
        },
        {
            "mesh" : 2,
            "name" : "soleil",
            "rotation" : [
                0.7071068286895752,
                0,
                0,
                0.7071068286895752
            ],
            "scale" : [
                23.892343521118164,
                20.94829559326172,
                23.892343521118164
            ],
            "translation" : [
                90.97514343261719,
                -1.2211904525756836,
                1.1090924739837646
            ]
        },
        {
            "mesh" : 3,
            "name" : "explosion1",
            "scale" : [
                19.657798767089844,
                19.657798767089844,
                19.657798767089844
            ],
            "translation" : [
                419.2609558105469,
                2.3028454780578613,
                2.5658347606658936
            ]
        },
        {
            "mesh" : 4,
            "name" : "gros truc",
            "rotation" : [
                0.7100991606712341,
                0.0034380843862891197,
                -0.0010839260648936033,
                0.7040924429893494
            ],
            "scale" : [
                42.05046463012695,
                15.90700626373291,
                41.13690185546875
            ],
            "translation" : [
                -218.61358642578125,
                35.052146911621094,
                2.5157012939453125
            ]
        },
        {
            "mesh" : 5,
            "name" : "fleche chelou",
            "rotation" : [
                -0.00013287048204801977,
                0.0002310228446731344,
                -0.9999871850013733,
                0.005074405577033758
            ],
            "scale" : [
                27.764331817626953,
                27.764341354370117,
                20.689584732055664
            ],
            "translation" : [
                183.92376708984375,
                0.9820671081542969,
                1.747257113456726
            ]
        },
        {
            "mesh" : 6,
            "name" : "etoile",
            "scale" : [
                20.14315414428711,
                20.14315414428711,
                20.14315414428711
            ],
            "translation" : [
                -18.0729923248291,
                0.07657432556152344,
                0.43671268224716187
            ]
        }
    ],
    "meshes" : [
        {
            "name" : "Cube",
            "primitives" : [
                {
                    "attributes" : {
                        "POSITION" : 0,
                        "NORMAL" : 1,
                        "TEXCOORD_0" : 2
                    },
                    "indices" : 3
                }
            ]
        },
        {
            "name" : "Plane.001",
            "primitives" : [
                {
                    "attributes" : {
                        "POSITION" : 4,
                        "NORMAL" : 5,
                        "TEXCOORD_0" : 6
                    },
                    "indices" : 7
                }
            ]
        },
        {
            "name" : "Cylinder.001",
            "primitives" : [
                {
                    "attributes" : {
                        "POSITION" : 8,
                        "NORMAL" : 9,
                        "TEXCOORD_0" : 10
                    },
                    "indices" : 11
                }
            ]
        },
        {
            "name" : "Cube.001",
            "primitives" : [
                {
                    "attributes" : {
                        "POSITION" : 12,
                        "NORMAL" : 13,
                        "TEXCOORD_0" : 14
                    },
                    "indices" : 15
                }
            ]
        },
        {
            "name" : "Cylinder.002",
            "primitives" : [
                {
                    "attributes" : {
                        "POSITION" : 16,
                        "NORMAL" : 17,
                        "TEXCOORD_0" : 18
                    },
                    "indices" : 19
                }
            ]
        },
        {
            "name" : "Cube.002",
            "primitives" : [
                {
                    "attributes" : {
                        "POSITION" : 20,
                        "NORMAL" : 21,
                        "TEXCOORD_0" : 22
                    },
                    "indices" : 23
                }
            ]
        },
        {
            "name" : "Cube.003",
            "primitives" : [
                {
                    "attributes" : {
                        "POSITION" : 24,
                        "NORMAL" : 25,
                        "TEXCOORD_0" : 26
                    },
                    "indices" : 27
                }
            ]
        }
    ],
    "accessors" : [
        {
            "bufferView" : 0,
            "componentType" : 5126,
            "count" : 92,
            "max" : [
                1.7145297527313232,
                1.714036226272583,
                0.4947851300239563
            ],
            "min" : [
                -3.9026010036468506,
                -1,
                -1
            ],
            "type" : "VEC3"
        },
        {
            "bufferView" : 1,
            "componentType" : 5126,
            "count" : 92,
            "type" : "VEC3"
        },
        {
            "bufferView" : 2,
            "componentType" : 5126,
            "count" : 92,
            "type" : "VEC2"
        },
        {
            "bufferView" : 3,
            "componentType" : 5123,
            "count" : 156,
            "type" : "SCALAR"
        },
        {
            "bufferView" : 4,
            "componentType" : 5126,
            "count" : 18,
            "max" : [
                1.102514386177063,
                0.18068204820156097,
                0.6053619384765625
            ],
            "min" : [
                -1.6066772937774658,
                -2.946000814437866,
                -1.3946380615234375
            ],
            "type" : "VEC3"
        },
        {
            "bufferView" : 5,
            "componentType" : 5126,
            "count" : 18,
            "type" : "VEC3"
        },
        {
            "bufferView" : 6,
            "componentType" : 5126,
            "count" : 18,
            "type" : "VEC2"
        },
        {
            "bufferView" : 7,
            "componentType" : 5123,
            "count" : 24,
            "type" : "SCALAR"
        },
        {
            "bufferView" : 8,
            "componentType" : 5126,
            "count" : 192,
            "max" : [
                1.5384635925292969,
                1,
                1.5384643077850342
            ],
            "min" : [
                -1.538464903831482,
                -1,
                -1.538464069366455
            ],
            "type" : "VEC3"
        },
        {
            "bufferView" : 9,
            "componentType" : 5126,
            "count" : 192,
            "type" : "VEC3"
        },
        {
            "bufferView" : 10,
            "componentType" : 5126,
            "count" : 192,
            "type" : "VEC2"
        },
        {
            "bufferView" : 11,
            "componentType" : 5123,
            "count" : 372,
            "type" : "SCALAR"
        },
        {
            "bufferView" : 12,
            "componentType" : 5126,
            "count" : 174,
            "max" : [
                2.2750003337860107,
                2.221029043197632,
                1
            ],
            "min" : [
                -2.1353230476379395,
                -1,
                -1
            ],
            "type" : "VEC3"
        },
        {
            "bufferView" : 13,
            "componentType" : 5126,
            "count" : 174,
            "type" : "VEC3"
        },
        {
            "bufferView" : 14,
            "componentType" : 5126,
            "count" : 174,
            "type" : "VEC2"
        },
        {
            "bufferView" : 15,
            "componentType" : 5123,
            "count" : 312,
            "type" : "SCALAR"
        },
        {
            "bufferView" : 16,
            "componentType" : 5126,
            "count" : 674,
            "max" : [
                0.741894006729126,
                1.2215235233306885,
                2.2479991912841797
            ],
            "min" : [
                -1.0108397006988525,
                -1.2215235233306885,
                -1.0124114751815796
            ],
            "type" : "VEC3"
        },
        {
            "bufferView" : 17,
            "componentType" : 5126,
            "count" : 674,
            "type" : "VEC3"
        },
        {
            "bufferView" : 18,
            "componentType" : 5126,
            "count" : 674,
            "type" : "VEC2"
        },
        {
            "bufferView" : 19,
            "componentType" : 5123,
            "count" : 1410,
            "type" : "SCALAR"
        },
        {
            "bufferView" : 20,
            "componentType" : 5126,
            "count" : 118,
            "max" : [
                0.5683639645576477,
                2.2365410327911377,
                1.0000001192092896
            ],
            "min" : [
                -0.7116400003433228,
                -2.1984987258911133,
                -1
            ],
            "type" : "VEC3"
        },
        {
            "bufferView" : 21,
            "componentType" : 5126,
            "count" : 118,
            "type" : "VEC3"
        },
        {
            "bufferView" : 22,
            "componentType" : 5126,
            "count" : 118,
            "type" : "VEC2"
        },
        {
            "bufferView" : 23,
            "componentType" : 5123,
            "count" : 192,
            "type" : "SCALAR"
        },
        {
            "bufferView" : 24,
            "componentType" : 5126,
            "count" : 96,
            "max" : [
                1.8799569606781006,
                1.830291748046875,
                1
            ],
            "min" : [
                -1.6973035335540771,
                -1.6567814350128174,
                -1
            ],
            "type" : "VEC3"
        },
        {
            "bufferView" : 25,
            "componentType" : 5126,
            "count" : 96,
            "type" : "VEC3"
        },
        {
            "bufferView" : 26,
            "componentType" : 5126,
            "count" : 96,
            "type" : "VEC2"
        },
        {
            "bufferView" : 27,
            "componentType" : 5123,
            "count" : 156,
            "type" : "SCALAR"
        }
    ],
    "bufferViews" : [
        {
            "buffer" : 0,
            "byteLength" : 1104,
            "byteOffset" : 0
        },
        {
            "buffer" : 0,
            "byteLength" : 1104,
            "byteOffset" : 1104
        },
        {
            "buffer" : 0,
            "byteLength" : 736,
            "byteOffset" : 2208
        },
        {
            "buffer" : 0,
            "byteLength" : 312,
            "byteOffset" : 2944
        },
        {
            "buffer" : 0,
            "byteLength" : 216,
            "byteOffset" : 3256
        },
        {
            "buffer" : 0,
            "byteLength" : 216,
            "byteOffset" : 3472
        },
        {
            "buffer" : 0,
            "byteLength" : 144,
            "byteOffset" : 3688
        },
        {
            "buffer" : 0,
            "byteLength" : 48,
            "byteOffset" : 3832
        },
        {
            "buffer" : 0,
            "byteLength" : 2304,
            "byteOffset" : 3880
        },
        {
            "buffer" : 0,
            "byteLength" : 2304,
            "byteOffset" : 6184
        },
        {
            "buffer" : 0,
            "byteLength" : 1536,
            "byteOffset" : 8488
        },
        {
            "buffer" : 0,
            "byteLength" : 744,
            "byteOffset" : 10024
        },
        {
            "buffer" : 0,
            "byteLength" : 2088,
            "byteOffset" : 10768
        },
        {
            "buffer" : 0,
            "byteLength" : 2088,
            "byteOffset" : 12856
        },
        {
            "buffer" : 0,
            "byteLength" : 1392,
            "byteOffset" : 14944
        },
        {
            "buffer" : 0,
            "byteLength" : 624,
            "byteOffset" : 16336
        },
        {
            "buffer" : 0,
            "byteLength" : 8088,
            "byteOffset" : 16960
        },
        {
            "buffer" : 0,
            "byteLength" : 8088,
            "byteOffset" : 25048
        },
        {
            "buffer" : 0,
            "byteLength" : 5392,
            "byteOffset" : 33136
        },
        {
            "buffer" : 0,
            "byteLength" : 2820,
            "byteOffset" : 38528
        },
        {
            "buffer" : 0,
            "byteLength" : 1416,
            "byteOffset" : 41348
        },
        {
            "buffer" : 0,
            "byteLength" : 1416,
            "byteOffset" : 42764
        },
        {
            "buffer" : 0,
            "byteLength" : 944,
            "byteOffset" : 44180
        },
        {
            "buffer" : 0,
            "byteLength" : 384,
            "byteOffset" : 45124
        },
        {
            "buffer" : 0,
            "byteLength" : 1152,
            "byteOffset" : 45508
        },
        {
            "buffer" : 0,
            "byteLength" : 1152,
            "byteOffset" : 46660
        },
        {
            "buffer" : 0,
            "byteLength" : 768,
            "byteOffset" : 47812
        },
        {
            "buffer" : 0,
            "byteLength" : 312,
            "byteOffset" : 48580
        }
    ],
    "buffers" : [
        {
            "byteLength" : 48892,
            "uri" : "data:application/octet-stream;base64,"
        }
    ]
}
