{
    "asset" : {
        "generator" : "Khronos glTF Blender I/O v1.4.40",
        "version" : "2.0"
    },
    "scene" : 0,
    "scenes" : [
        {
            "name" : "Scene",
            "nodes" : [
                0
            ]
        }
    ],
    "nodes" : [
        {
            "mesh" : 0,
            "name" : "Cube",
            "scale" : [
                7.008055686950684,
                0.15332016348838806,
                40.5002326965332
            ]
        }
    ],
    "materials" : [
        {
            "doubleSided" : true,
            "name" : "Material",
            "pbrMetallicRoughness" : {
                "baseColorFactor" : [
                    0.800000011920929,
                    0.800000011920929,
                    0.800000011920929,
                    1
                ],
                "metallicFactor" : 0,
                "roughnessFactor" : 0.4000000059604645
            }
        }
    ],
    "meshes" : [
        {
            "name" : "Cube",
            "primitives" : [
                {
                    "attributes" : {
                        "POSITION" : 0,
                        "NORMAL" : 1,
                        "TEXCOORD_0" : 2
                    },
                    "indices" : 3,
                    "material" : 0
                }
            ]
        }
    ],
    "accessors" : [
        {
            "bufferView" : 0,
            "componentType" : 5126,
            "count" : 4363,
            "max" : [
                1.6118531227111816,
                65.9375,
                1.0933059453964233
            ],
            "min" : [
                -1.6118531227111816,
                -47.69206237792969,
                -1.0933059453964233
            ],
            "type" : "VEC3"
        },
        {
            "bufferView" : 1,
            "componentType" : 5126,
            "count" : 4363,
            "type" : "VEC3"
        },
        {
            "bufferView" : 2,
            "componentType" : 5126,
            "count" : 4363,
            "type" : "VEC2"
        },
        {
            "bufferView" : 3,
            "componentType" : 5123,
            "count" : 6942,
            "type" : "SCALAR"
        }
    ],
    "bufferViews" : [
        {
            "buffer" : 0,
            "byteLength" : 52356,
            "byteOffset" : 0
        },
        {
            "buffer" : 0,
            "byteLength" : 52356,
            "byteOffset" : 52356
        },
        {
            "buffer" : 0,
            "byteLength" : 34904,
            "byteOffset" : 104712
        },
        {
            "buffer" : 0,
            "byteLength" : 13884,
            "byteOffset" : 139616
        }
    ],
    "buffers" : [
        {
            "byteLength" : 153500,
            "uri" : "data:application/octet-stream;base64,"
        }
    ]
}
