{
    "asset" : {
        "generator" : "Khronos glTF Blender I/O v1.4.40",
        "version" : "2.0"
    },
    "scene" : 0,
    "scenes" : [
        {
            "name" : "Scene",
            "nodes" : [
                0,
                1,
                2,
                3,
                4,
                5,
                6
            ]
        }
    ],
    "nodes" : [
        {
            "mesh" : 0,
            "name" : "Cylinder"
        },
        {
            "mesh" : 1,
            "name" : "Cube",
            "rotation" : [
                -0.8419631719589233,
                -0.21511319279670715,
                -0.29341694712638855,
                0.398410439491272
            ],
            "scale" : [
                0.08301978558301926,
                0.08301978558301926,
                0.08301978558301926
            ],
            "translation" : [
                -0.12836501002311707,
                -0.2690030038356781,
                -0.7699175477027893
            ]
        },
        {
            "mesh" : 2,
            "name" : "Cube.001",
            "rotation" : [
                -0.7110030055046082,
                -0.018679078668355942,
                0.3753543198108673,
                0.5943357944488525
            ],
            "scale" : [
                0.08301978558301926,
                0.08301978558301926,
                0.08301978558301926
            ],
            "translation" : [
                -0.8984081745147705,
                -1.4071763753890991,
                0.7099461555480957
            ]
        },
        {
            "mesh" : 3,
            "name" : "Cube.002",
            "rotation" : [
                -0.46310868859291077,
                -0.7177490592002869,
                -0.1257796436548233,
                0.5045257806777954
            ],
            "scale" : [
                0.08301978558301926,
                0.08301978558301926,
                0.08301978558301926
            ],
            "translation" : [
                0.886572539806366,
                -0.30593886971473694,
                0.041875164955854416
            ]
        },
        {
            "mesh" : 4,
            "name" : "Cube.003",
            "rotation" : [
                -0.15250380337238312,
                0.3820616602897644,
                -0.7696216702461243,
                -0.4883175194263458
            ],
            "scale" : [
                0.18604522943496704,
                0.18604522943496704,
                0.18604522943496704
            ],
            "translation" : [
                0.9750626087188721,
                -1.3512768745422363,
                -0.138753741979599
            ]
        },
        {
            "mesh" : 5,
            "name" : "Icosphere",
            "scale" : [
                0.26627475023269653,
                0.26627475023269653,
                0.26627475023269653
            ],
            "translation" : [
                -0.8967946171760559,
                -0.12239407747983932,
                0.24881641566753387
            ]
        },
        {
            "mesh" : 6,
            "name" : "Plane",
            "rotation" : [
                0,
                0.18476217985153198,
                0,
                0.9827832579612732
            ],
            "scale" : [
                0.10976101458072662,
                0.10976101458072662,
                0.10976101458072662
            ],
            "translation" : [
                0.8011595010757446,
                -1.0222574472427368,
                -0.34210118651390076
            ]
        }
    ],
    "meshes" : [
        {
            "name" : "Cylinder",
            "primitives" : [
                {
                    "attributes" : {
                        "POSITION" : 0,
                        "NORMAL" : 1,
                        "TEXCOORD_0" : 2
                    },
                    "indices" : 3
                }
            ]
        },
        {
            "name" : "Cube.001",
            "primitives" : [
                {
                    "attributes" : {
                        "POSITION" : 4,
                        "NORMAL" : 5,
                        "TEXCOORD_0" : 6
                    },
                    "indices" : 7
                }
            ]
        },
        {
            "name" : "Cube.002",
            "primitives" : [
                {
                    "attributes" : {
                        "POSITION" : 8,
                        "NORMAL" : 9,
                        "TEXCOORD_0" : 10
                    },
                    "indices" : 7
                }
            ]
        },
        {
            "name" : "Cube.003",
            "primitives" : [
                {
                    "attributes" : {
                        "POSITION" : 11,
                        "NORMAL" : 12,
                        "TEXCOORD_0" : 13
                    },
                    "indices" : 7
                }
            ]
        },
        {
            "name" : "Cube.004",
            "primitives" : [
                {
                    "attributes" : {
                        "POSITION" : 14,
                        "NORMAL" : 15,
                        "TEXCOORD_0" : 16
                    },
                    "indices" : 7
                }
            ]
        },
        {
            "name" : "Icosphere",
            "primitives" : [
                {
                    "attributes" : {
                        "POSITION" : 17,
                        "NORMAL" : 18,
                        "TEXCOORD_0" : 19
                    },
                    "indices" : 20
                }
            ]
        },
        {
            "name" : "Plane",
            "primitives" : [
                {
                    "attributes" : {
                        "POSITION" : 21,
                        "NORMAL" : 22,
                        "TEXCOORD_0" : 23
                    },
                    "indices" : 24
                }
            ]
        }
    ],
    "accessors" : [
        {
            "bufferView" : 0,
            "componentType" : 5126,
            "count" : 3032,
            "max" : [
                1,
                1.146278977394104,
                1.439296841621399
            ],
            "min" : [
                -1,
                -1.0475636720657349,
                -1
            ],
            "type" : "VEC3"
        },
        {
            "bufferView" : 1,
            "componentType" : 5126,
            "count" : 3032,
            "type" : "VEC3"
        },
        {
            "bufferView" : 2,
            "componentType" : 5126,
            "count" : 3032,
            "type" : "VEC2"
        },
        {
            "bufferView" : 3,
            "componentType" : 5123,
            "count" : 4632,
            "type" : "SCALAR"
        },
        {
            "bufferView" : 4,
            "componentType" : 5126,
            "count" : 24,
            "max" : [
                1,
                1,
                1
            ],
            "min" : [
                -1,
                -1,
                -1
            ],
            "type" : "VEC3"
        },
        {
            "bufferView" : 5,
            "componentType" : 5126,
            "count" : 24,
            "type" : "VEC3"
        },
        {
            "bufferView" : 6,
            "componentType" : 5126,
            "count" : 24,
            "type" : "VEC2"
        },
        {
            "bufferView" : 7,
            "componentType" : 5123,
            "count" : 36,
            "type" : "SCALAR"
        },
        {
            "bufferView" : 8,
            "componentType" : 5126,
            "count" : 24,
            "max" : [
                1,
                1,
                1
            ],
            "min" : [
                -1,
                -1,
                -1
            ],
            "type" : "VEC3"
        },
        {
            "bufferView" : 9,
            "componentType" : 5126,
            "count" : 24,
            "type" : "VEC3"
        },
        {
            "bufferView" : 10,
            "componentType" : 5126,
            "count" : 24,
            "type" : "VEC2"
        },
        {
            "bufferView" : 11,
            "componentType" : 5126,
            "count" : 24,
            "max" : [
                1,
                1,
                1
            ],
            "min" : [
                -1,
                -1,
                -1
            ],
            "type" : "VEC3"
        },
        {
            "bufferView" : 12,
            "componentType" : 5126,
            "count" : 24,
            "type" : "VEC3"
        },
        {
            "bufferView" : 13,
            "componentType" : 5126,
            "count" : 24,
            "type" : "VEC2"
        },
        {
            "bufferView" : 14,
            "componentType" : 5126,
            "count" : 24,
            "max" : [
                1,
                1,
                1
            ],
            "min" : [
                -1,
                -1,
                -1
            ],
            "type" : "VEC3"
        },
        {
            "bufferView" : 15,
            "componentType" : 5126,
            "count" : 24,
            "type" : "VEC3"
        },
        {
            "bufferView" : 16,
            "componentType" : 5126,
            "count" : 24,
            "type" : "VEC2"
        },
        {
            "bufferView" : 17,
            "componentType" : 5126,
            "count" : 240,
            "max" : [
                0.9510578513145447,
                1,
                0.9999999403953552
            ],
            "min" : [
                -0.9510578513145447,
                -1,
                -0.9999999403953552
            ],
            "type" : "VEC3"
        },
        {
            "bufferView" : 18,
            "componentType" : 5126,
            "count" : 240,
            "type" : "VEC3"
        },
        {
            "bufferView" : 19,
            "componentType" : 5126,
            "count" : 240,
            "type" : "VEC2"
        },
        {
            "bufferView" : 20,
            "componentType" : 5123,
            "count" : 240,
            "type" : "SCALAR"
        },
        {
            "bufferView" : 21,
            "componentType" : 5126,
            "count" : 211,
            "max" : [
                1,
                19.750961303710938,
                9.036887168884277
            ],
            "min" : [
                -16.273103713989258,
                0,
                -7.096120834350586
            ],
            "type" : "VEC3"
        },
        {
            "bufferView" : 22,
            "componentType" : 5126,
            "count" : 211,
            "type" : "VEC3"
        },
        {
            "bufferView" : 23,
            "componentType" : 5126,
            "count" : 211,
            "type" : "VEC2"
        },
        {
            "bufferView" : 24,
            "componentType" : 5123,
            "count" : 315,
            "type" : "SCALAR"
        }
    ],
    "bufferViews" : [
        {
            "buffer" : 0,
            "byteLength" : 36384,
            "byteOffset" : 0
        },
        {
            "buffer" : 0,
            "byteLength" : 36384,
            "byteOffset" : 36384
        },
        {
            "buffer" : 0,
            "byteLength" : 24256,
            "byteOffset" : 72768
        },
        {
            "buffer" : 0,
            "byteLength" : 9264,
            "byteOffset" : 97024
        },
        {
            "buffer" : 0,
            "byteLength" : 288,
            "byteOffset" : 106288
        },
        {
            "buffer" : 0,
            "byteLength" : 288,
            "byteOffset" : 106576
        },
        {
            "buffer" : 0,
            "byteLength" : 192,
            "byteOffset" : 106864
        },
        {
            "buffer" : 0,
            "byteLength" : 72,
            "byteOffset" : 107056
        },
        {
            "buffer" : 0,
            "byteLength" : 288,
            "byteOffset" : 107128
        },
        {
            "buffer" : 0,
            "byteLength" : 288,
            "byteOffset" : 107416
        },
        {
            "buffer" : 0,
            "byteLength" : 192,
            "byteOffset" : 107704
        },
        {
            "buffer" : 0,
            "byteLength" : 288,
            "byteOffset" : 107896
        },
        {
            "buffer" : 0,
            "byteLength" : 288,
            "byteOffset" : 108184
        },
        {
            "buffer" : 0,
            "byteLength" : 192,
            "byteOffset" : 108472
        },
        {
            "buffer" : 0,
            "byteLength" : 288,
            "byteOffset" : 108664
        },
        {
            "buffer" : 0,
            "byteLength" : 288,
            "byteOffset" : 108952
        },
        {
            "buffer" : 0,
            "byteLength" : 192,
            "byteOffset" : 109240
        },
        {
            "buffer" : 0,
            "byteLength" : 2880,
            "byteOffset" : 109432
        },
        {
            "buffer" : 0,
            "byteLength" : 2880,
            "byteOffset" : 112312
        },
        {
            "buffer" : 0,
            "byteLength" : 1920,
            "byteOffset" : 115192
        },
        {
            "buffer" : 0,
            "byteLength" : 480,
            "byteOffset" : 117112
        },
        {
            "buffer" : 0,
            "byteLength" : 2532,
            "byteOffset" : 117592
        },
        {
            "buffer" : 0,
            "byteLength" : 2532,
            "byteOffset" : 120124
        },
        {
            "buffer" : 0,
            "byteLength" : 1688,
            "byteOffset" : 122656
        },
        {
            "buffer" : 0,
            "byteLength" : 630,
            "byteOffset" : 124344
        }
    ],
    "buffers" : [
        {
            "byteLength" : 124976,
            "uri" : "data:application/octet-stream;base64,"
        }
    ]
}
