{
    "asset" : {
        "generator" : "Khronos glTF Blender I/O v1.4.40",
        "version" : "2.0"
    },
    "scene" : 0,
    "scenes" : [
        {
            "name" : "Scene",
            "nodes" : [
                0
            ]
        }
    ],
    "nodes" : [
        {
            "mesh" : 0,
            "name" : "Brioche",
            "scale" : [
                1.7200000286102295,
                2,
                4.5
            ]
        }
    ],
    "meshes" : [
        {
            "name" : "Cube.001",
            "primitives" : [
                {
                    "attributes" : {
                        "POSITION" : 0,
                        "NORMAL" : 1,
                        "TEXCOORD_0" : 2
                    },
                    "indices" : 3
                }
            ]
        }
    ],
    "accessors" : [
        {
            "bufferView" : 0,
            "componentType" : 5126,
            "count" : 1638,
            "max" : [
                1.0970098972320557,
                0.8243877291679382,
                1.1734745502471924
            ],
            "min" : [
                -1.0970098972320557,
                -1,
                -1.0354641675949097
            ],
            "type" : "VEC3"
        },
        {
            "bufferView" : 1,
            "componentType" : 5126,
            "count" : 1638,
            "type" : "VEC3"
        },
        {
            "bufferView" : 2,
            "componentType" : 5126,
            "count" : 1638,
            "type" : "VEC2"
        },
        {
            "bufferView" : 3,
            "componentType" : 5123,
            "count" : 2670,
            "type" : "SCALAR"
        }
    ],
    "bufferViews" : [
        {
            "buffer" : 0,
            "byteLength" : 19656,
            "byteOffset" : 0
        },
        {
            "buffer" : 0,
            "byteLength" : 19656,
            "byteOffset" : 19656
        },
        {
            "buffer" : 0,
            "byteLength" : 13104,
            "byteOffset" : 39312
        },
        {
            "buffer" : 0,
            "byteLength" : 5340,
            "byteOffset" : 52416
        }
    ],
    "buffers" : [
        {
            "byteLength" : 57756,
            "uri" : "data:application/octet-stream;base64,"
        }
    ]
}
