{
    "asset" : {
        "generator" : "Khronos glTF Blender I/O v1.5.17",
        "version" : "2.0"
    },
    "scene" : 0,
    "scenes" : [
        {
            "name" : "Scene",
            "nodes" : [
                0,
                1,
                2,
                3,
                4
            ]
        }
    ],
    "nodes" : [
        {
            "extras" : {
                "data" : "wheel"
            },
            "mesh" : 0,
            "name" : "Roue ARD",
            "rotation" : [
                0,
                0,
                -0.7071067690849304,
                0.7071068286895752
            ],
            "scale" : [
                0.6036780476570129,
                0.2955929636955261,
                0.6036780476570129
            ],
            "translation" : [
                -1.3792579174041748,
                -1.911293625831604,
                -3.065720558166504
            ]
        },
        {
            "extras" : {
                "data" : "wheel"
            },
            "mesh" : 1,
            "name" : "Roue ARG",
            "rotation" : [
                -0.7071067690849304,
                0.7071068286895752,
                0,
                -3.0908619663705394e-08
            ],
            "scale" : [
                0.6036780476570129,
                0.2955929636955261,
                0.6036780476570129
            ],
            "translation" : [
                1.4071800708770752,
                -1.911293625831604,
                -3.065720558166504
            ]
        },
        {
            "extras" : {
                "data" : "wheel"
            },
            "mesh" : 2,
            "name" : "Roue AVG",
            "rotation" : [
                -0.7071067690849304,
                0.7071068286895752,
                0,
                -3.0908619663705394e-08
            ],
            "scale" : [
                0.6036780476570129,
                0.2955929636955261,
                0.6036780476570129
            ],
            "translation" : [
                1.4071800708770752,
                -1.911293625831604,
                2.8629047870635986
            ]
        },
        {
            "extras" : {
                "data" : "wheel"
            },
            "mesh" : 3,
            "name" : "Roue AVD",
            "rotation" : [
                0,
                0,
                -0.7071067690849304,
                0.7071068286895752
            ],
            "scale" : [
                0.6036780476570129,
                0.2955929636955261,
                0.6036780476570129
            ],
            "translation" : [
                -1.3792579174041748,
                -1.911293625831604,
                2.8629047870635986
            ]
        },
        {
            "extras" : {
                "data" : "van"
            },
            "mesh" : 4,
            "name" : "Brioche",
            "scale" : [
                1.7200000286102295,
                2,
                4.5
            ]
        }
    ],
    "materials" : [
        {
            "doubleSided" : true,
            "name" : "Material.001",
            "pbrMetallicRoughness" : {
                "baseColorTexture" : {
                    "index" : 0
                },
                "metallicFactor" : 0,
                "roughnessFactor" : 0.5
            }
        },
        {
            "doubleSided" : true,
            "name" : "Material.002",
            "pbrMetallicRoughness" : {
                "baseColorTexture" : {
                    "index" : 1
                },
                "metallicFactor" : 0,
                "roughnessFactor" : 0.5
            }
        },
        {
            "doubleSided" : true,
            "name" : "Material.003",
            "pbrMetallicRoughness" : {
                "baseColorTexture" : {
                    "index" : 2
                },
                "metallicFactor" : 0,
                "roughnessFactor" : 0.5
            }
        },
        {
            "doubleSided" : true,
            "name" : "Material.004",
            "pbrMetallicRoughness" : {
                "baseColorTexture" : {
                    "index" : 3
                },
                "metallicFactor" : 0,
                "roughnessFactor" : 0.5
            }
        }
    ],
    "meshes" : [
        {
            "name" : "Cylinder",
            "primitives" : [
                {
                    "attributes" : {
                        "POSITION" : 0,
                        "NORMAL" : 1,
                        "TEXCOORD_0" : 2
                    },
                    "indices" : 3,
                    "material" : 0
                }
            ]
        },
        {
            "name" : "Cylinder.001",
            "primitives" : [
                {
                    "attributes" : {
                        "POSITION" : 4,
                        "NORMAL" : 5,
                        "TEXCOORD_0" : 6
                    },
                    "indices" : 3,
                    "material" : 1
                }
            ]
        },
        {
            "name" : "Cylinder.002",
            "primitives" : [
                {
                    "attributes" : {
                        "POSITION" : 7,
                        "NORMAL" : 8,
                        "TEXCOORD_0" : 9
                    },
                    "indices" : 3,
                    "material" : 2
                }
            ]
        },
        {
            "name" : "Cylinder.003",
            "primitives" : [
                {
                    "attributes" : {
                        "POSITION" : 10,
                        "NORMAL" : 11,
                        "TEXCOORD_0" : 12
                    },
                    "indices" : 3,
                    "material" : 3
                }
            ]
        },
        {
            "name" : "Cube.001",
            "primitives" : [
                {
                    "attributes" : {
                        "POSITION" : 13,
                        "NORMAL" : 14,
                        "TEXCOORD_0" : 15
                    },
                    "indices" : 16
                }
            ]
        }
    ],
    "textures" : [
        {
            "sampler" : 0,
            "source" : 0
        },
        {
            "sampler" : 0,
            "source" : 0
        },
        {
            "sampler" : 0,
            "source" : 0
        },
        {
            "sampler" : 0,
            "source" : 0
        }
    ],
    "images" : [
        {
            "bufferView" : 4,
            "mimeType" : "image/png",
            "name" : "Material"
        }
    ],
    "accessors" : [
        {
            "bufferView" : 0,
            "componentType" : 5126,
            "count" : 574,
            "max" : [
                1,
                1,
                1
            ],
            "min" : [
                -1,
                -1,
                -1
            ],
            "type" : "VEC3"
        },
        {
            "bufferView" : 1,
            "componentType" : 5126,
            "count" : 574,
            "type" : "VEC3"
        },
        {
            "bufferView" : 2,
            "componentType" : 5126,
            "count" : 574,
            "type" : "VEC2"
        },
        {
            "bufferView" : 3,
            "componentType" : 5123,
            "count" : 756,
            "type" : "SCALAR"
        },
        {
            "bufferView" : 5,
            "componentType" : 5126,
            "count" : 574,
            "max" : [
                1,
                1,
                1
            ],
            "min" : [
                -1,
                -1,
                -1
            ],
            "type" : "VEC3"
        },
        {
            "bufferView" : 6,
            "componentType" : 5126,
            "count" : 574,
            "type" : "VEC3"
        },
        {
            "bufferView" : 7,
            "componentType" : 5126,
            "count" : 574,
            "type" : "VEC2"
        },
        {
            "bufferView" : 8,
            "componentType" : 5126,
            "count" : 574,
            "max" : [
                1,
                1,
                1
            ],
            "min" : [
                -1,
                -1,
                -1
            ],
            "type" : "VEC3"
        },
        {
            "bufferView" : 9,
            "componentType" : 5126,
            "count" : 574,
            "type" : "VEC3"
        },
        {
            "bufferView" : 10,
            "componentType" : 5126,
            "count" : 574,
            "type" : "VEC2"
        },
        {
            "bufferView" : 11,
            "componentType" : 5126,
            "count" : 574,
            "max" : [
                1,
                1,
                1
            ],
            "min" : [
                -1,
                -1,
                -1
            ],
            "type" : "VEC3"
        },
        {
            "bufferView" : 12,
            "componentType" : 5126,
            "count" : 574,
            "type" : "VEC3"
        },
        {
            "bufferView" : 13,
            "componentType" : 5126,
            "count" : 574,
            "type" : "VEC2"
        },
        {
            "bufferView" : 14,
            "componentType" : 5126,
            "count" : 1638,
            "max" : [
                1.0970098972320557,
                0.8243877291679382,
                1.1734745502471924
            ],
            "min" : [
                -1.0970098972320557,
                -1,
                -1.0354641675949097
            ],
            "type" : "VEC3"
        },
        {
            "bufferView" : 15,
            "componentType" : 5126,
            "count" : 1638,
            "type" : "VEC3"
        },
        {
            "bufferView" : 16,
            "componentType" : 5126,
            "count" : 1638,
            "type" : "VEC2"
        },
        {
            "bufferView" : 17,
            "componentType" : 5123,
            "count" : 2670,
            "type" : "SCALAR"
        }
    ],
    "bufferViews" : [
        {
            "buffer" : 0,
            "byteLength" : 6888,
            "byteOffset" : 0
        },
        {
            "buffer" : 0,
            "byteLength" : 6888,
            "byteOffset" : 6888
        },
        {
            "buffer" : 0,
            "byteLength" : 4592,
            "byteOffset" : 13776
        },
        {
            "buffer" : 0,
            "byteLength" : 1512,
            "byteOffset" : 18368
        },
        {
            "buffer" : 0,
            "byteLength" : 64342,
            "byteOffset" : 19880
        },
        {
            "buffer" : 0,
            "byteLength" : 6888,
            "byteOffset" : 84224
        },
        {
            "buffer" : 0,
            "byteLength" : 6888,
            "byteOffset" : 91112
        },
        {
            "buffer" : 0,
            "byteLength" : 4592,
            "byteOffset" : 98000
        },
        {
            "buffer" : 0,
            "byteLength" : 6888,
            "byteOffset" : 102592
        },
        {
            "buffer" : 0,
            "byteLength" : 6888,
            "byteOffset" : 109480
        },
        {
            "buffer" : 0,
            "byteLength" : 4592,
            "byteOffset" : 116368
        },
        {
            "buffer" : 0,
            "byteLength" : 6888,
            "byteOffset" : 120960
        },
        {
            "buffer" : 0,
            "byteLength" : 6888,
            "byteOffset" : 127848
        },
        {
            "buffer" : 0,
            "byteLength" : 4592,
            "byteOffset" : 134736
        },
        {
            "buffer" : 0,
            "byteLength" : 19656,
            "byteOffset" : 139328
        },
        {
            "buffer" : 0,
            "byteLength" : 19656,
            "byteOffset" : 158984
        },
        {
            "buffer" : 0,
            "byteLength" : 13104,
            "byteOffset" : 178640
        },
        {
            "buffer" : 0,
            "byteLength" : 5340,
            "byteOffset" : 191744
        }
    ],
    "samplers" : [
        {
            "magFilter" : 9729,
            "minFilter" : 9987
        }
    ],
    "buffers" : [
        {
            "byteLength" : 197084,
            "uri" : "data:application/octet-stream;base64,"
        }
    ]
}
