<?xml version="1.0" encoding="UTF-8" standalone="no"?>
<!DOCTYPE svg PUBLIC "-//W3C//DTD SVG 1.1//EN" "http://www.w3.org/Graphics/SVG/1.1/DTD/svg11.dtd">
<svg width="100%" height="100%" viewBox="0 0 2213 1007" version="1.1" xmlns="http://www.w3.org/2000/svg" xmlns:xlink="http://www.w3.org/1999/xlink" xml:space="preserve" xmlns:serif="http://www.serif.com/" style="fill-rule:evenodd;clip-rule:evenodd;stroke-linejoin:round;stroke-miterlimit:2;">
    <g transform="matrix(1,0,0,1,-2571,-36)">
        <g id="Plan-de-travail2" serif:id="Plan de travail2" transform="matrix(1,0,0,0.932407,0,36)">
            <rect x="2571" y="0" width="2213" height="1080" style="fill:none;"/>
            <g transform="matrix(7.10043,0,0,7.61516,-3133.71,-3582.75)">
                <g transform="matrix(2.07568,0,0,2.07568,1051.72,511.683)">
                    <path d="M0,27.125C-6.29,30.568 -12.139,32.616 -16.785,33.863C-15.128,31.309 -10.123,22.874 -11.316,11.482C-12.178,3.258 -15.865,-2.531 -17.801,-5.175C-12.76,-3.606 -6.663,-1.261 -0.128,2.332C7.111,6.305 12.803,10.668 17.039,14.41C13.207,18.206 7.597,22.964 0,27.125M-44.178,37.575C-57.302,37.575 -67.947,26.938 -67.947,13.805C-67.947,0.681 -57.302,-9.964 -44.178,-9.964C-31.046,-9.964 -20.408,0.681 -20.408,13.805C-20.408,26.938 -31.046,37.575 -44.178,37.575M-71.168,33.175C-75.813,31.921 -81.662,29.881 -87.952,26.438C-95.549,22.277 -101.159,17.519 -104.991,13.723C-100.756,9.974 -95.063,5.618 -87.825,1.645C-81.289,-1.956 -75.193,-4.302 -70.151,-5.862C-72.086,-3.226 -75.776,2.571 -76.635,10.795C-77.838,22.181 -72.825,30.62 -71.168,33.175M-35.185,-19.084C-57.228,-21.214 -74.072,-14.431 -82.737,-10.822C-100.838,-3.286 -112.969,7.426 -119.617,14.231C-113.544,20.088 -104.08,28.029 -91.008,34.826C-81.476,39.778 -65.012,48.339 -42.564,48.176C-13.29,47.967 7.537,33.063 15.671,27.073C22.363,22.143 27.316,17.302 30.537,13.858C25.883,9.361 19.003,3.407 9.821,-2.3C0.538,-8.074 -14.29,-17.068 -35.185,-19.084" style="fill:white;fill-rule:nonzero;"/>
                </g>
                <g transform="matrix(2.07568,0,0,2.07568,959.473,528.694)">
                    <path d="M0,12.297C-3.583,12.297 -6.479,9.392 -6.479,5.817C-6.479,2.24 -3.583,-0.664 0,-0.664C3.576,-0.664 6.48,2.24 6.48,5.817C6.48,9.392 3.576,12.297 0,12.297M0.253,-9.022C-8.127,-9.022 -14.918,-2.225 -14.918,6.149C-14.918,14.529 -8.127,21.319 0.253,21.319C8.633,21.319 15.425,14.529 15.425,6.149C15.425,-2.225 8.633,-9.022 0.253,-9.022" style="fill:white;fill-rule:nonzero;"/>
                </g>
            </g>
        </g>
    </g>
</svg>
